<svg width="72" height="72" viewBox="0 0 72 72" fill="none" xmlns="http://www.w3.org/2000/svg">
<g filter="url(#filter0_d_54_960)">
<rect x="11" y="11" width="50" height="50" rx="8" fill="white" fill-opacity="0.89" shape-rendering="crispEdges"/>
</g>
<path d="M32.9446 45.9999C31.2796 46.0128 29.7883 44.9724 29.2256 43.4054C28.6629 41.8384 29.1517 40.0869 30.4446 39.0378C29.5276 38.2956 28.9948 37.179 28.9948 35.9993C28.9948 34.8196 29.5276 33.703 30.4446 32.9608C29.1513 31.912 28.6622 30.1604 29.225 28.5933C29.7878 27.0263 31.2795 25.9861 32.9446 25.9996H39.0546C40.7196 25.9861 42.2113 27.0263 42.7741 28.5933C43.3369 30.1604 42.8478 31.912 41.5546 32.9608C42.8474 34.0099 43.3362 35.7614 42.7735 37.3284C42.2108 38.8954 40.7195 39.9358 39.0546 39.9228C38.2855 39.9237 37.533 39.6999 36.8896 39.2788V42.0788C36.8802 44.2498 35.1156 46.0037 32.9446 45.9999ZM32.9226 39.9238C31.7381 39.9425 30.7912 40.9145 30.8037 42.0991C30.8161 43.2836 31.7831 44.2356 32.9677 44.2295C34.1523 44.2233 35.1094 43.2614 35.1096 42.0768V39.9238H32.9216H32.9226ZM39.0556 33.8468C37.8679 33.8528 36.9095 34.8194 36.9135 36.0071C36.9176 37.1947 37.8826 38.1548 39.0702 38.1527C40.2578 38.1507 41.2196 37.1874 41.2196 35.9998C41.2151 34.8079 40.2465 33.8446 39.0546 33.8468H39.0556ZM32.9456 33.8467C32.1764 33.8427 31.4634 34.2492 31.0752 34.9133C30.6871 35.5774 30.6827 36.3981 31.0637 37.0663C31.4448 37.7345 32.1534 38.1487 32.9226 38.1528H35.1096V33.8467H32.9456ZM36.8896 27.7698V32.0768H39.0536C40.2111 32.0822 41.1661 31.1722 41.2166 30.0158V30.4508V29.9228C41.2116 28.7323 40.2451 27.7698 39.0546 27.7698H36.8896ZM32.9436 27.7698C32.1744 27.7698 31.4636 28.1801 31.079 28.8463C30.6944 29.5124 30.6944 30.3331 31.079 30.9993C31.4636 31.6654 32.1744 32.0758 32.9436 32.0758H35.1096V27.7698H32.9436Z" fill="#2200F2"/>
<defs>
<filter id="filter0_d_54_960" x="0" y="0" width="72" height="72" filterUnits="userSpaceOnUse" color-interpolation-filters="sRGB">
<feFlood flood-opacity="0" result="BackgroundImageFix"/>
<feColorMatrix in="SourceAlpha" type="matrix" values="0 0 0 0 0 0 0 0 0 0 0 0 0 0 0 0 0 0 127 0" result="hardAlpha"/>
<feOffset/>
<feGaussianBlur stdDeviation="5.5"/>
<feComposite in2="hardAlpha" operator="out"/>
<feColorMatrix type="matrix" values="0 0 0 0 1 0 0 0 0 1 0 0 0 0 1 0 0 0 1 0"/>
<feBlend mode="normal" in2="BackgroundImageFix" result="effect1_dropShadow_54_960"/>
<feBlend mode="normal" in="SourceGraphic" in2="effect1_dropShadow_54_960" result="shape"/>
</filter>
</defs>
</svg>
