<svg width="384" height="380" viewBox="0 0 384 380" fill="none" xmlns="http://www.w3.org/2000/svg">
<g filter="url(#filter0_d_166_6001)">
<rect x="80" y="80" width="223.548" height="220" rx="110" fill="white"/>
<g clip-path="url(#clip0_166_6001)">
<path d="M162.922 200.803C170.772 190.323 178.283 189.302 180.705 192.537C183.204 195.844 179.218 202.301 178.11 204.01C177.002 205.72 175.335 209.823 174.263 211.473C172.043 214.89 169.259 217.117 165.195 215.666C161.131 214.215 158.473 210.653 160.803 204.721C161.353 203.336 162.064 202.021 162.922 200.803Z" fill="#FB4846" stroke="#1B1717" stroke-width="0.868331" stroke-miterlimit="10"/>
<path d="M249.266 199.35C247.502 191.223 244.281 186.63 241.25 184.848L242.635 168.883C242.656 168.638 242.677 168.394 242.699 168.149C242.86 165.663 242.455 163.172 241.512 160.866C240.57 158.56 239.115 156.498 237.258 154.837C229.214 147.608 216.492 149.946 211.15 159.332L208.781 163.49C208.578 163.847 208.278 164.137 207.915 164.328C207.552 164.518 207.142 164.601 206.734 164.565C206.326 164.53 205.936 164.378 205.612 164.128C205.287 163.878 205.041 163.54 204.903 163.154L203.29 158.651C199.64 148.484 187.497 143.989 178.341 149.727C176.226 151.043 174.438 152.823 173.113 154.933C171.788 157.042 170.961 159.426 170.694 161.903C170.673 162.147 170.652 162.392 170.631 162.637L168.082 192.02C167.62 197.346 169.168 202.652 172.421 206.894C175.674 211.136 180.396 214.007 185.66 214.943C185.649 215.065 185.639 215.183 185.628 215.31C185.406 222.708 184.301 224.232 181.574 224.42C174.355 224.926 171.629 228.578 171.377 230.697C170.653 236.668 176.313 238.291 183.163 238.886C189.536 239.438 195.321 237.202 196.027 233.643C196.733 230.085 197.623 221.714 198.164 216.114L210.504 217.185C210.879 224.173 208.857 226.28 206.378 227.279C199.477 230.072 198.144 234.544 198.095 236.689C197.957 242.698 203.968 242.648 210.389 241.553C216.695 240.471 222.83 237.082 223.496 233.406C224.122 229.923 224.095 222.504 223.99 217.186C228.858 215.97 233.146 213.086 236.108 209.035C237.123 210.639 238.677 211.719 241.065 211.926C245.364 212.299 249.259 210.163 249.615 203.799C249.672 202.307 249.555 200.814 249.266 199.35V199.35Z" fill="#FB4846" stroke="#1B1717" stroke-width="0.868331" stroke-miterlimit="10"/>
<path d="M192.851 178.28C193.314 173.152 191.358 168.785 188.482 168.526C185.605 168.266 182.899 172.212 182.436 177.34C181.973 182.467 183.929 186.834 186.806 187.094C189.682 187.354 192.389 183.408 192.851 178.28Z" fill="white" stroke="#1B1717" stroke-width="0.868331" stroke-miterlimit="10"/>
<path d="M189.203 180.12C189.438 177.519 188.073 175.269 186.155 175.096C184.236 174.923 182.491 176.892 182.256 179.493C182.021 182.094 183.386 184.343 185.304 184.516C187.223 184.69 188.968 182.721 189.203 180.12Z" fill="#1B1717"/>
<path d="M208.712 179.656C209.175 174.528 207.218 170.161 204.342 169.902C201.466 169.642 198.759 173.588 198.296 178.716C197.833 183.843 199.79 188.21 202.666 188.47C205.542 188.73 208.249 184.783 208.712 179.656Z" fill="white" stroke="#1B1717" stroke-width="0.868331" stroke-miterlimit="10"/>
<path d="M205.34 181.515C205.575 178.914 204.21 176.665 202.292 176.492C200.373 176.319 198.628 178.287 198.393 180.888C198.158 183.49 199.523 185.739 201.441 185.912C203.36 186.085 205.105 184.117 205.34 181.515Z" fill="#1B1717"/>
<path d="M234.173 195.937C234.455 197.951 234.276 202.377 234.564 204.323C235.159 208.355 236.758 211.538 241.062 211.912C245.365 212.285 249.257 210.149 249.612 203.789C249.687 202.3 249.588 200.807 249.318 199.341" stroke="#1B1717" stroke-width="0.868331" stroke-miterlimit="10"/>
</g>
<path d="M134.084 203.209C130.923 201.57 129.689 197.68 131.327 194.519L133.793 189.762C135.431 186.601 139.322 185.366 142.483 187.005L157.367 194.719C160.528 196.358 161.763 200.249 160.124 203.41L157.659 208.167C156.02 211.328 152.13 212.562 148.969 210.924L134.084 203.209Z" fill="white"/>
<path fill-rule="evenodd" clip-rule="evenodd" d="M134.269 190.009L131.804 194.766C130.302 197.663 131.434 201.23 134.331 202.732L149.216 210.447C152.113 211.949 155.68 210.817 157.182 207.919L159.647 203.162C161.149 200.265 160.018 196.698 157.12 195.196L142.236 187.482C139.338 185.98 135.771 187.111 134.269 190.009ZM131.327 194.519C129.689 197.68 130.923 201.57 134.084 203.209L148.969 210.924C152.13 212.562 156.02 211.328 157.659 208.167L160.124 203.41C161.763 200.249 160.528 196.358 157.367 194.719L142.483 187.005C139.322 185.366 135.431 186.601 133.793 189.762L131.327 194.519Z" fill="black"/>
<path d="M138.515 199.143C139.012 199.4 139.206 200.012 138.949 200.51C138.691 201.007 138.079 201.201 137.582 200.943C137.085 200.685 136.891 200.074 137.148 199.576C137.406 199.079 138.018 198.885 138.515 199.143Z" fill="black"/>
<path d="M140.01 198.776C140.507 199.034 140.702 199.646 140.444 200.143C140.186 200.64 139.574 200.834 139.077 200.576C138.58 200.319 138.386 199.707 138.643 199.21C138.901 198.712 139.513 198.518 140.01 198.776Z" fill="black"/>
<path d="M139.077 200.577C139.574 200.834 139.768 201.446 139.51 201.943C139.253 202.441 138.641 202.635 138.143 202.377C137.646 202.119 137.452 201.507 137.71 201.01C137.967 200.513 138.579 200.319 139.077 200.577Z" fill="black"/>
<path d="M138.878 200.962L139.278 200.191L140.821 200.991L140.421 201.762L138.878 200.962Z" fill="black"/>
<path d="M145.46 202.742C145.958 203 146.152 203.612 145.894 204.109C145.636 204.606 145.024 204.8 144.527 204.543C144.03 204.285 143.836 203.673 144.094 203.176C144.351 202.679 144.963 202.484 145.46 202.742Z" fill="black"/>
<path d="M146.956 202.375C147.453 202.633 147.647 203.245 147.389 203.742C147.131 204.239 146.519 204.433 146.022 204.175C145.525 203.918 145.331 203.306 145.589 202.809C145.846 202.311 146.458 202.117 146.956 202.375Z" fill="black"/>
<path d="M146.021 204.176C146.518 204.433 146.712 205.045 146.455 205.542C146.197 206.04 145.585 206.234 145.088 205.976C144.591 205.718 144.396 205.106 144.654 204.609C144.912 204.112 145.524 203.918 146.021 204.176Z" fill="black"/>
<path d="M145.822 204.562L146.222 203.79L147.765 204.59L147.366 205.361L145.822 204.562Z" fill="black"/>
<path d="M149.36 195.219C149.857 195.477 150.051 196.089 149.793 196.586C149.536 197.083 148.924 197.277 148.427 197.019C147.929 196.762 147.735 196.15 147.993 195.652C148.251 195.155 148.863 194.961 149.36 195.219Z" fill="black"/>
<path d="M150.855 194.852C151.352 195.11 151.546 195.722 151.289 196.219C151.031 196.716 150.419 196.91 149.922 196.652C149.425 196.395 149.23 195.783 149.488 195.286C149.746 194.788 150.358 194.594 150.855 194.852Z" fill="black"/>
<path d="M149.92 196.653C150.418 196.91 150.612 197.522 150.354 198.02C150.096 198.517 149.484 198.711 148.987 198.453C148.49 198.195 148.296 197.584 148.554 197.086C148.811 196.589 149.423 196.395 149.92 196.653Z" fill="black"/>
<path d="M149.721 197.038L150.121 196.267L151.664 197.067L151.264 197.838L149.721 197.038Z" fill="black"/>
<path d="M142.266 191.908C142.763 192.166 142.957 192.778 142.7 193.275C142.442 193.772 141.83 193.966 141.333 193.709C140.836 193.451 140.642 192.839 140.899 192.342C141.157 191.845 141.769 191.651 142.266 191.908Z" fill="black"/>
<path d="M143.761 191.541C144.258 191.799 144.453 192.411 144.195 192.908C143.937 193.405 143.325 193.599 142.828 193.342C142.331 193.084 142.137 192.472 142.394 191.975C142.652 191.478 143.264 191.283 143.761 191.541Z" fill="black"/>
<path d="M142.827 193.342C143.324 193.6 143.518 194.212 143.26 194.709C143.003 195.206 142.391 195.4 141.893 195.142C141.396 194.885 141.202 194.273 141.46 193.776C141.717 193.278 142.329 193.084 142.827 193.342Z" fill="black"/>
<path d="M142.628 193.728L143.028 192.956L144.571 193.756L144.171 194.528L142.628 193.728Z" fill="black"/>
<path d="M135.549 198.967C135.6 198.508 135.394 198.148 134.985 197.936C134.329 197.596 133.657 197.98 133.336 198.599C133.016 199.218 133.089 199.988 133.745 200.328C134.154 200.54 134.567 200.502 134.915 200.189C134.817 200.725 134.999 201.145 135.487 201.398C136.242 201.789 136.928 201.366 137.298 200.652C137.651 199.97 137.634 199.143 136.863 198.743C136.38 198.493 135.927 198.584 135.549 198.967ZM133.777 198.828C133.962 198.471 134.321 198.304 134.704 198.503C135.108 198.712 135.217 199.081 135.015 199.469C134.811 199.863 134.455 199.985 134.046 199.772C133.674 199.579 133.584 199.2 133.777 198.828ZM136.841 200.416C136.621 200.841 136.209 201.02 135.784 200.799C135.322 200.56 135.26 200.128 135.477 199.709C135.695 199.289 136.089 199.094 136.545 199.33C136.991 199.561 137.051 200.012 136.841 200.416Z" fill="black"/>
<path d="M153.826 199.704L154.277 199.938L154.554 199.403L157.005 200.673L157.285 200.133L155.768 196.984L155.349 196.766L154.364 198.665L153.383 198.157L153.122 198.661L154.103 199.169L153.826 199.704ZM154.815 198.899L155.476 197.624L156.591 199.853C156.463 199.766 156.347 199.693 156.232 199.634L154.815 198.899Z" fill="black"/>
<path d="M138.735 194.619C136.368 191.959 136.607 187.884 139.267 185.517L143.271 181.957C145.931 179.591 150.006 179.829 152.373 182.49L163.514 195.017C165.88 197.677 165.642 201.752 162.981 204.118L158.978 207.679C156.317 210.045 152.242 209.807 149.876 207.146L138.735 194.619Z" fill="white"/>
<path fill-rule="evenodd" clip-rule="evenodd" d="M143.628 182.358L139.624 185.919C137.186 188.088 136.967 191.823 139.136 194.262L150.278 206.789C152.447 209.228 156.182 209.447 158.621 207.278L162.624 203.717C165.063 201.548 165.282 197.813 163.113 195.374L151.971 182.847C149.802 180.408 146.067 180.189 143.628 182.358ZM139.267 185.517C136.607 187.884 136.368 191.959 138.735 194.619L149.876 207.146C152.242 209.807 156.317 210.045 158.978 207.679L162.981 204.118C165.642 201.752 165.88 197.677 163.514 195.017L152.373 182.49C150.006 179.829 145.931 179.591 143.271 181.957L139.267 185.517Z" fill="black"/>
<path d="M144.328 192.407C144.7 192.825 144.662 193.466 144.244 193.838C143.826 194.21 143.185 194.173 142.813 193.754C142.44 193.336 142.478 192.695 142.896 192.323C143.315 191.951 143.956 191.988 144.328 192.407Z" fill="black"/>
<path d="M145.855 192.599C146.227 193.017 146.19 193.658 145.771 194.03C145.353 194.403 144.712 194.365 144.34 193.947C143.968 193.528 144.005 192.887 144.424 192.515C144.842 192.143 145.483 192.18 145.855 192.599Z" fill="black"/>
<path d="M144.341 193.947C144.713 194.365 144.675 195.006 144.257 195.378C143.838 195.75 143.197 195.713 142.825 195.294C142.453 194.876 142.491 194.235 142.909 193.863C143.327 193.491 143.968 193.528 144.341 193.947Z" fill="black"/>
<path d="M144.014 194.236L144.663 193.658L145.818 194.957L145.169 195.534L144.014 194.236Z" fill="black"/>
<path d="M149.526 198.251C149.898 198.669 149.861 199.31 149.442 199.683C149.024 200.055 148.383 200.017 148.011 199.599C147.639 199.18 147.676 198.539 148.095 198.167C148.513 197.795 149.154 197.833 149.526 198.251Z" fill="black"/>
<path d="M151.054 198.443C151.427 198.862 151.389 199.503 150.971 199.875C150.552 200.247 149.911 200.209 149.539 199.791C149.167 199.372 149.204 198.732 149.623 198.359C150.041 197.987 150.682 198.025 151.054 198.443Z" fill="black"/>
<path d="M149.539 199.791C149.911 200.21 149.873 200.85 149.455 201.223C149.037 201.595 148.396 201.557 148.023 201.139C147.651 200.72 147.689 200.079 148.107 199.707C148.526 199.335 149.167 199.373 149.539 199.791Z" fill="black"/>
<path d="M149.214 200.08L149.863 199.502L151.018 200.801L150.369 201.379L149.214 200.08Z" fill="black"/>
<path d="M155.858 192.62C156.23 193.039 156.193 193.68 155.774 194.052C155.356 194.424 154.715 194.386 154.343 193.968C153.971 193.549 154.008 192.909 154.427 192.536C154.845 192.164 155.486 192.202 155.858 192.62Z" fill="black"/>
<path d="M157.386 192.812C157.759 193.23 157.721 193.871 157.303 194.243C156.884 194.615 156.243 194.578 155.871 194.16C155.499 193.741 155.536 193.1 155.955 192.728C156.373 192.356 157.014 192.393 157.386 192.812Z" fill="black"/>
<path d="M155.871 194.16C156.243 194.578 156.205 195.219 155.787 195.591C155.369 195.963 154.728 195.926 154.355 195.507C153.983 195.089 154.021 194.448 154.439 194.076C154.858 193.704 155.499 193.741 155.871 194.16Z" fill="black"/>
<path d="M155.546 194.449L156.195 193.871L157.351 195.17L156.701 195.748L155.546 194.449Z" fill="black"/>
<path d="M150.414 186.992C150.786 187.41 150.748 188.051 150.33 188.423C149.912 188.795 149.271 188.758 148.898 188.339C148.526 187.921 148.564 187.28 148.982 186.908C149.401 186.536 150.042 186.573 150.414 186.992Z" fill="black"/>
<path d="M151.941 187.184C152.313 187.602 152.276 188.243 151.857 188.615C151.439 188.987 150.798 188.95 150.426 188.531C150.054 188.113 150.091 187.472 150.51 187.1C150.928 186.728 151.569 186.765 151.941 187.184Z" fill="black"/>
<path d="M150.426 188.531C150.799 188.95 150.761 189.591 150.343 189.963C149.924 190.335 149.283 190.297 148.911 189.879C148.539 189.461 148.577 188.82 148.995 188.447C149.413 188.075 150.054 188.113 150.426 188.531Z" fill="black"/>
<path d="M150.102 188.82L150.751 188.242L151.906 189.541L151.257 190.119L150.102 188.82Z" fill="black"/>
<path d="M140.498 189.387L139.893 189.925L140.061 191.911C140.102 192.365 140.226 192.879 140.537 193.228C141.153 193.921 141.974 193.982 142.65 193.381C143.281 192.819 143.393 191.921 142.827 191.286C142.324 190.72 141.584 190.644 140.992 191.17C140.82 191.323 140.687 191.52 140.611 191.738L140.498 189.387ZM142.284 192.987C141.877 193.348 141.413 193.271 141.075 192.891C140.753 192.529 140.788 192.016 141.159 191.686C141.547 191.34 142.027 191.364 142.373 191.753C142.714 192.137 142.65 192.661 142.284 192.987Z" fill="black"/>
<path d="M158.424 198.406L158.761 198.786L159.212 198.385L161.046 200.447L161.501 200.043L161.211 196.56L160.897 196.207L159.298 197.628L158.564 196.803L158.14 197.18L158.874 198.005L158.424 198.406ZM159.636 198.008L160.709 197.054L160.953 199.534C160.864 199.407 160.783 199.298 160.696 199.2L159.636 198.008Z" fill="black"/>
<path d="M145.107 188.54C143.52 185.353 144.818 181.483 148.006 179.897L152.803 177.509C155.99 175.923 159.86 177.221 161.447 180.409L168.916 195.418C170.502 198.606 169.204 202.476 166.017 204.062L161.22 206.449C158.032 208.035 154.162 206.737 152.576 203.55L145.107 188.54Z" fill="white"/>
<path fill-rule="evenodd" clip-rule="evenodd" d="M153.042 177.99L148.245 180.378C145.323 181.832 144.133 185.379 145.588 188.301L153.057 203.31C154.511 206.232 158.059 207.422 160.981 205.968L165.777 203.581C168.699 202.127 169.889 198.579 168.435 195.657L160.966 180.648C159.512 177.726 155.964 176.536 153.042 177.99ZM148.006 179.897C144.818 181.483 143.52 185.353 145.107 188.54L152.576 203.55C154.162 206.737 158.032 208.035 161.22 206.449L166.017 204.062C169.204 202.476 170.502 198.606 168.916 195.418L161.447 180.409C159.86 177.221 155.99 175.923 152.803 177.509L148.006 179.897Z" fill="black"/>
<path d="M151.083 187.871C151.332 188.372 151.128 188.981 150.627 189.23C150.125 189.48 149.517 189.276 149.267 188.774C149.018 188.273 149.222 187.664 149.723 187.415C150.225 187.165 150.833 187.37 151.083 187.871Z" fill="black"/>
<path d="M152.509 188.457C152.758 188.958 152.554 189.567 152.053 189.816C151.551 190.066 150.942 189.862 150.693 189.36C150.443 188.859 150.648 188.25 151.149 188.001C151.65 187.751 152.259 187.955 152.509 188.457Z" fill="black"/>
<path d="M150.692 189.36C150.942 189.862 150.737 190.47 150.236 190.72C149.735 190.969 149.126 190.765 148.877 190.264C148.627 189.762 148.831 189.154 149.333 188.904C149.834 188.655 150.443 188.859 150.692 189.36Z" fill="black"/>
<path d="M150.303 189.554L151.081 189.167L151.855 190.723L151.077 191.11L150.303 189.554Z" fill="black"/>
<path d="M154.569 194.873C154.819 195.375 154.614 195.983 154.113 196.233C153.612 196.482 153.003 196.278 152.754 195.777C152.504 195.276 152.708 194.667 153.21 194.417C153.711 194.168 154.32 194.372 154.569 194.873Z" fill="black"/>
<path d="M155.994 195.459C156.243 195.961 156.039 196.569 155.538 196.819C155.037 197.068 154.428 196.864 154.178 196.363C153.929 195.862 154.133 195.253 154.634 195.003C155.136 194.754 155.744 194.958 155.994 195.459Z" fill="black"/>
<path d="M154.177 196.363C154.427 196.864 154.223 197.473 153.721 197.722C153.22 197.972 152.611 197.768 152.362 197.266C152.112 196.765 152.317 196.156 152.818 195.907C153.319 195.657 153.928 195.862 154.177 196.363Z" fill="black"/>
<path d="M153.788 196.556L154.566 196.169L155.341 197.725L154.563 198.113L153.788 196.556Z" fill="black"/>
<path d="M162.155 191.098C162.405 191.599 162.2 192.208 161.699 192.458C161.198 192.707 160.589 192.503 160.339 192.002C160.09 191.5 160.294 190.891 160.795 190.642C161.297 190.392 161.906 190.597 162.155 191.098Z" fill="black"/>
<path d="M163.579 191.684C163.828 192.185 163.624 192.794 163.123 193.043C162.621 193.293 162.013 193.089 161.763 192.587C161.514 192.086 161.718 191.477 162.219 191.228C162.721 190.978 163.329 191.182 163.579 191.684Z" fill="black"/>
<path d="M161.764 192.587C162.014 193.089 161.81 193.697 161.308 193.947C160.807 194.196 160.198 193.992 159.949 193.491C159.699 192.989 159.903 192.381 160.405 192.131C160.906 191.882 161.515 192.086 161.764 192.587Z" fill="black"/>
<path d="M161.374 192.781L162.152 192.394L162.927 193.95L162.148 194.337L161.374 192.781Z" fill="black"/>
<path d="M158.379 184.24C158.628 184.741 158.424 185.35 157.923 185.6C157.421 185.849 156.813 185.645 156.563 185.144C156.314 184.642 156.518 184.034 157.019 183.784C157.52 183.535 158.129 183.739 158.379 184.24Z" fill="black"/>
<path d="M159.804 184.826C160.054 185.327 159.85 185.936 159.348 186.185C158.847 186.435 158.238 186.231 157.989 185.729C157.739 185.228 157.944 184.619 158.445 184.37C158.946 184.12 159.555 184.324 159.804 184.826Z" fill="black"/>
<path d="M157.988 185.73C158.238 186.231 158.033 186.84 157.532 187.089C157.031 187.339 156.422 187.134 156.172 186.633C155.923 186.132 156.127 185.523 156.628 185.274C157.13 185.024 157.739 185.228 157.988 185.73Z" fill="black"/>
<path d="M157.598 185.923L158.376 185.536L159.15 187.092L158.372 187.48L157.598 185.923Z" fill="black"/>
<path d="M150.178 186.602L149.951 186.147L149.411 186.416L148.182 183.945L147.637 184.216L147.004 187.654L147.215 188.077L149.13 187.124L149.622 188.113L150.13 187.86L149.638 186.871L150.178 186.602ZM148.904 186.669L147.618 187.309L148.032 184.851C148.085 184.997 148.135 185.124 148.193 185.24L148.904 186.669Z" fill="black"/>
<path d="M163.115 197.355L163.342 197.81L163.881 197.541L165.111 200.012L165.656 199.741L166.289 196.303L166.078 195.88L164.163 196.833L163.671 195.844L163.163 196.097L163.655 197.086L163.115 197.355ZM164.389 197.288L165.675 196.648L165.261 199.106C165.208 198.96 165.158 198.833 165.1 198.717L164.389 197.288Z" fill="black"/>
<g clip-path="url(#clip1_166_6001)">
<path d="M162.922 200.803C170.772 190.323 178.283 189.302 180.705 192.537C183.204 195.844 179.218 202.301 178.11 204.01C177.002 205.72 175.335 209.823 174.263 211.473C172.043 214.89 169.259 217.117 165.195 215.666C161.131 214.215 158.473 210.653 160.803 204.721C161.353 203.336 162.064 202.021 162.922 200.803Z" fill="#FB4846" stroke="#1B1717" stroke-width="0.868331" stroke-miterlimit="10"/>
<path d="M249.266 199.35C247.502 191.223 244.281 186.63 241.25 184.848L242.635 168.883C242.656 168.638 242.677 168.394 242.699 168.149C242.86 165.663 242.455 163.172 241.512 160.866C240.57 158.56 239.115 156.498 237.258 154.837C229.214 147.608 216.492 149.946 211.15 159.332L208.781 163.49C208.578 163.847 208.278 164.137 207.915 164.328C207.552 164.518 207.142 164.601 206.734 164.565C206.326 164.53 205.936 164.378 205.612 164.128C205.287 163.878 205.041 163.54 204.903 163.154L203.29 158.651C199.64 148.484 187.497 143.989 178.341 149.727C176.226 151.043 174.438 152.823 173.113 154.933C171.788 157.042 170.961 159.426 170.694 161.903C170.673 162.147 170.652 162.392 170.631 162.637L168.082 192.02C167.62 197.346 169.168 202.652 172.421 206.894C175.674 211.136 180.396 214.007 185.66 214.943C185.649 215.065 185.639 215.183 185.628 215.31C185.406 222.708 184.301 224.232 181.574 224.42C174.355 224.926 171.629 228.578 171.377 230.697C170.653 236.668 176.313 238.291 183.163 238.886C189.536 239.438 195.321 237.202 196.027 233.643C196.733 230.085 197.623 221.714 198.164 216.114L210.504 217.185C210.879 224.173 208.857 226.28 206.378 227.279C199.477 230.072 198.144 234.544 198.095 236.689C197.957 242.698 203.968 242.648 210.389 241.553C216.695 240.471 222.83 237.082 223.496 233.406C224.122 229.923 224.095 222.504 223.99 217.186C228.858 215.97 233.146 213.086 236.108 209.035C237.123 210.639 238.677 211.719 241.065 211.926C245.364 212.299 249.259 210.163 249.615 203.799C249.672 202.307 249.555 200.814 249.266 199.35V199.35Z" fill="#FB4846" stroke="#1B1717" stroke-width="0.868331" stroke-miterlimit="10"/>
<path d="M192.851 178.28C193.314 173.152 191.358 168.785 188.482 168.526C185.605 168.266 182.899 172.212 182.436 177.34C181.973 182.467 183.929 186.834 186.806 187.094C189.682 187.354 192.389 183.408 192.851 178.28Z" fill="white" stroke="#1B1717" stroke-width="0.868331" stroke-miterlimit="10"/>
<path d="M189.203 180.12C189.438 177.519 188.073 175.269 186.155 175.096C184.236 174.923 182.491 176.892 182.256 179.493C182.021 182.094 183.386 184.343 185.304 184.516C187.223 184.69 188.968 182.721 189.203 180.12Z" fill="#1B1717"/>
<path d="M208.712 179.656C209.175 174.528 207.218 170.161 204.342 169.902C201.466 169.642 198.759 173.588 198.296 178.716C197.833 183.843 199.79 188.21 202.666 188.47C205.542 188.73 208.249 184.783 208.712 179.656Z" fill="white" stroke="#1B1717" stroke-width="0.868331" stroke-miterlimit="10"/>
<path d="M205.34 181.515C205.575 178.914 204.21 176.665 202.292 176.492C200.373 176.319 198.628 178.287 198.393 180.888C198.158 183.49 199.523 185.739 201.441 185.912C203.36 186.085 205.105 184.117 205.34 181.515Z" fill="#1B1717"/>
<path d="M234.173 195.937C234.455 197.951 234.276 202.377 234.564 204.323C235.159 208.355 236.758 211.538 241.062 211.912C245.365 212.285 249.257 210.149 249.612 203.789C249.687 202.3 249.588 200.807 249.318 199.341" stroke="#1B1717" stroke-width="0.868331" stroke-miterlimit="10"/>
</g>
<path d="M134.084 203.209C130.923 201.57 129.689 197.68 131.327 194.519L133.793 189.762C135.431 186.601 139.322 185.366 142.483 187.005L157.367 194.719C160.528 196.358 161.763 200.249 160.124 203.41L157.659 208.167C156.02 211.328 152.13 212.562 148.969 210.924L134.084 203.209Z" fill="white"/>
<path fill-rule="evenodd" clip-rule="evenodd" d="M134.269 190.009L131.804 194.766C130.302 197.663 131.434 201.23 134.331 202.732L149.216 210.447C152.113 211.949 155.68 210.817 157.182 207.919L159.647 203.162C161.149 200.265 160.018 196.698 157.12 195.196L142.236 187.482C139.338 185.98 135.771 187.111 134.269 190.009ZM131.327 194.519C129.689 197.68 130.923 201.57 134.084 203.209L148.969 210.924C152.13 212.562 156.02 211.328 157.659 208.167L160.124 203.41C161.763 200.249 160.528 196.358 157.367 194.719L142.483 187.005C139.322 185.366 135.431 186.601 133.793 189.762L131.327 194.519Z" fill="black"/>
<path d="M138.515 199.143C139.012 199.4 139.206 200.012 138.949 200.51C138.691 201.007 138.079 201.201 137.582 200.943C137.085 200.685 136.891 200.074 137.148 199.576C137.406 199.079 138.018 198.885 138.515 199.143Z" fill="black"/>
<path d="M140.01 198.776C140.507 199.034 140.702 199.646 140.444 200.143C140.186 200.64 139.574 200.834 139.077 200.576C138.58 200.319 138.386 199.707 138.643 199.21C138.901 198.712 139.513 198.518 140.01 198.776Z" fill="black"/>
<path d="M139.077 200.577C139.574 200.834 139.768 201.446 139.51 201.943C139.253 202.441 138.641 202.635 138.143 202.377C137.646 202.119 137.452 201.507 137.71 201.01C137.967 200.513 138.579 200.319 139.077 200.577Z" fill="black"/>
<path d="M138.878 200.962L139.278 200.191L140.821 200.991L140.421 201.762L138.878 200.962Z" fill="black"/>
<path d="M145.46 202.742C145.958 203 146.152 203.612 145.894 204.109C145.636 204.606 145.024 204.8 144.527 204.543C144.03 204.285 143.836 203.673 144.094 203.176C144.351 202.679 144.963 202.484 145.46 202.742Z" fill="black"/>
<path d="M146.956 202.375C147.453 202.633 147.647 203.245 147.389 203.742C147.131 204.239 146.519 204.433 146.022 204.175C145.525 203.918 145.331 203.306 145.589 202.809C145.846 202.311 146.458 202.117 146.956 202.375Z" fill="black"/>
<path d="M146.021 204.176C146.518 204.433 146.712 205.045 146.455 205.542C146.197 206.04 145.585 206.234 145.088 205.976C144.591 205.718 144.396 205.106 144.654 204.609C144.912 204.112 145.524 203.918 146.021 204.176Z" fill="black"/>
<path d="M145.822 204.562L146.222 203.79L147.765 204.59L147.366 205.361L145.822 204.562Z" fill="black"/>
<path d="M149.36 195.219C149.857 195.477 150.051 196.089 149.793 196.586C149.536 197.083 148.924 197.277 148.427 197.019C147.929 196.762 147.735 196.15 147.993 195.652C148.251 195.155 148.863 194.961 149.36 195.219Z" fill="black"/>
<path d="M150.855 194.852C151.352 195.11 151.546 195.722 151.289 196.219C151.031 196.716 150.419 196.91 149.922 196.652C149.425 196.395 149.23 195.783 149.488 195.286C149.746 194.788 150.358 194.594 150.855 194.852Z" fill="black"/>
<path d="M149.92 196.653C150.418 196.91 150.612 197.522 150.354 198.02C150.096 198.517 149.484 198.711 148.987 198.453C148.49 198.195 148.296 197.584 148.554 197.086C148.811 196.589 149.423 196.395 149.92 196.653Z" fill="black"/>
<path d="M149.721 197.038L150.121 196.267L151.664 197.067L151.264 197.838L149.721 197.038Z" fill="black"/>
<path d="M142.266 191.908C142.763 192.166 142.957 192.778 142.7 193.275C142.442 193.772 141.83 193.966 141.333 193.709C140.836 193.451 140.642 192.839 140.899 192.342C141.157 191.845 141.769 191.651 142.266 191.908Z" fill="black"/>
<path d="M143.761 191.541C144.258 191.799 144.453 192.411 144.195 192.908C143.937 193.405 143.325 193.599 142.828 193.342C142.331 193.084 142.137 192.472 142.394 191.975C142.652 191.478 143.264 191.283 143.761 191.541Z" fill="black"/>
<path d="M142.827 193.342C143.324 193.6 143.518 194.212 143.26 194.709C143.003 195.206 142.391 195.4 141.893 195.142C141.396 194.885 141.202 194.273 141.46 193.776C141.717 193.278 142.329 193.084 142.827 193.342Z" fill="black"/>
<path d="M142.628 193.728L143.028 192.956L144.571 193.756L144.171 194.528L142.628 193.728Z" fill="black"/>
<path d="M135.549 198.967C135.6 198.508 135.394 198.148 134.985 197.936C134.329 197.596 133.657 197.98 133.336 198.599C133.016 199.218 133.089 199.988 133.745 200.328C134.154 200.54 134.567 200.502 134.915 200.189C134.817 200.725 134.999 201.145 135.487 201.398C136.242 201.789 136.928 201.366 137.298 200.652C137.651 199.97 137.634 199.143 136.863 198.743C136.38 198.493 135.927 198.584 135.549 198.967ZM133.777 198.828C133.962 198.471 134.321 198.304 134.704 198.503C135.108 198.712 135.217 199.081 135.015 199.469C134.811 199.863 134.455 199.985 134.046 199.772C133.674 199.579 133.584 199.2 133.777 198.828ZM136.841 200.416C136.621 200.841 136.209 201.02 135.784 200.799C135.322 200.56 135.26 200.128 135.477 199.709C135.695 199.289 136.089 199.094 136.545 199.33C136.991 199.561 137.051 200.012 136.841 200.416Z" fill="black"/>
<path d="M153.826 199.704L154.277 199.938L154.554 199.403L157.005 200.673L157.285 200.133L155.768 196.984L155.349 196.766L154.364 198.665L153.383 198.157L153.122 198.661L154.103 199.169L153.826 199.704ZM154.815 198.899L155.476 197.624L156.591 199.853C156.463 199.766 156.347 199.693 156.232 199.634L154.815 198.899Z" fill="black"/>
<path d="M138.735 194.619C136.368 191.959 136.607 187.884 139.267 185.517L143.271 181.957C145.931 179.591 150.006 179.829 152.373 182.49L163.514 195.017C165.88 197.677 165.642 201.752 162.981 204.118L158.978 207.679C156.317 210.045 152.242 209.807 149.876 207.146L138.735 194.619Z" fill="white"/>
<path fill-rule="evenodd" clip-rule="evenodd" d="M143.628 182.358L139.624 185.919C137.186 188.088 136.967 191.823 139.136 194.262L150.278 206.789C152.447 209.228 156.182 209.447 158.621 207.278L162.624 203.717C165.063 201.548 165.282 197.813 163.113 195.374L151.971 182.847C149.802 180.408 146.067 180.189 143.628 182.358ZM139.267 185.517C136.607 187.884 136.368 191.959 138.735 194.619L149.876 207.146C152.242 209.807 156.317 210.045 158.978 207.679L162.981 204.118C165.642 201.752 165.88 197.677 163.514 195.017L152.373 182.49C150.006 179.829 145.931 179.591 143.271 181.957L139.267 185.517Z" fill="black"/>
<path d="M144.328 192.407C144.7 192.825 144.662 193.466 144.244 193.838C143.826 194.21 143.185 194.173 142.813 193.754C142.44 193.336 142.478 192.695 142.896 192.323C143.315 191.951 143.956 191.988 144.328 192.407Z" fill="black"/>
<path d="M145.855 192.599C146.227 193.017 146.19 193.658 145.771 194.03C145.353 194.403 144.712 194.365 144.34 193.947C143.968 193.528 144.005 192.887 144.424 192.515C144.842 192.143 145.483 192.18 145.855 192.599Z" fill="black"/>
<path d="M144.341 193.947C144.713 194.365 144.675 195.006 144.257 195.378C143.838 195.75 143.197 195.713 142.825 195.294C142.453 194.876 142.491 194.235 142.909 193.863C143.327 193.491 143.968 193.528 144.341 193.947Z" fill="black"/>
<path d="M144.014 194.236L144.663 193.658L145.818 194.957L145.169 195.534L144.014 194.236Z" fill="black"/>
<path d="M149.526 198.251C149.898 198.669 149.861 199.31 149.442 199.683C149.024 200.055 148.383 200.017 148.011 199.599C147.639 199.18 147.676 198.539 148.095 198.167C148.513 197.795 149.154 197.833 149.526 198.251Z" fill="black"/>
<path d="M151.054 198.443C151.427 198.862 151.389 199.503 150.971 199.875C150.552 200.247 149.911 200.209 149.539 199.791C149.167 199.372 149.204 198.732 149.623 198.359C150.041 197.987 150.682 198.025 151.054 198.443Z" fill="black"/>
<path d="M149.539 199.791C149.911 200.21 149.873 200.85 149.455 201.223C149.037 201.595 148.396 201.557 148.023 201.139C147.651 200.72 147.689 200.079 148.107 199.707C148.526 199.335 149.167 199.373 149.539 199.791Z" fill="black"/>
<path d="M149.214 200.08L149.863 199.502L151.018 200.801L150.369 201.379L149.214 200.08Z" fill="black"/>
<path d="M155.858 192.62C156.23 193.039 156.193 193.68 155.774 194.052C155.356 194.424 154.715 194.386 154.343 193.968C153.971 193.549 154.008 192.909 154.427 192.536C154.845 192.164 155.486 192.202 155.858 192.62Z" fill="black"/>
<path d="M157.386 192.812C157.759 193.23 157.721 193.871 157.303 194.243C156.884 194.615 156.243 194.578 155.871 194.16C155.499 193.741 155.536 193.1 155.955 192.728C156.373 192.356 157.014 192.393 157.386 192.812Z" fill="black"/>
<path d="M155.871 194.16C156.243 194.578 156.205 195.219 155.787 195.591C155.369 195.963 154.728 195.926 154.355 195.507C153.983 195.089 154.021 194.448 154.439 194.076C154.858 193.704 155.499 193.741 155.871 194.16Z" fill="black"/>
<path d="M155.546 194.449L156.195 193.871L157.351 195.17L156.701 195.748L155.546 194.449Z" fill="black"/>
<path d="M150.414 186.992C150.786 187.41 150.748 188.051 150.33 188.423C149.912 188.795 149.271 188.758 148.898 188.339C148.526 187.921 148.564 187.28 148.982 186.908C149.401 186.536 150.042 186.573 150.414 186.992Z" fill="black"/>
<path d="M151.941 187.184C152.313 187.602 152.276 188.243 151.857 188.615C151.439 188.987 150.798 188.95 150.426 188.531C150.054 188.113 150.091 187.472 150.51 187.1C150.928 186.728 151.569 186.765 151.941 187.184Z" fill="black"/>
<path d="M150.426 188.531C150.799 188.95 150.761 189.591 150.343 189.963C149.924 190.335 149.283 190.297 148.911 189.879C148.539 189.461 148.577 188.82 148.995 188.447C149.413 188.075 150.054 188.113 150.426 188.531Z" fill="black"/>
<path d="M150.102 188.82L150.751 188.242L151.906 189.541L151.257 190.119L150.102 188.82Z" fill="black"/>
<path d="M140.498 189.387L139.893 189.925L140.061 191.911C140.102 192.365 140.226 192.879 140.537 193.228C141.153 193.921 141.974 193.982 142.65 193.381C143.281 192.819 143.393 191.921 142.827 191.286C142.324 190.72 141.584 190.644 140.992 191.17C140.82 191.323 140.687 191.52 140.611 191.738L140.498 189.387ZM142.284 192.987C141.877 193.348 141.413 193.271 141.075 192.891C140.753 192.529 140.788 192.016 141.159 191.686C141.547 191.34 142.027 191.364 142.373 191.753C142.714 192.137 142.65 192.661 142.284 192.987Z" fill="black"/>
<path d="M158.424 198.406L158.761 198.786L159.212 198.385L161.046 200.447L161.501 200.043L161.211 196.56L160.897 196.207L159.298 197.628L158.564 196.803L158.14 197.18L158.874 198.005L158.424 198.406ZM159.636 198.008L160.709 197.054L160.953 199.534C160.864 199.407 160.783 199.298 160.696 199.2L159.636 198.008Z" fill="black"/>
<path d="M145.107 188.54C143.52 185.353 144.818 181.483 148.006 179.897L152.803 177.509C155.99 175.923 159.86 177.221 161.447 180.409L168.916 195.418C170.502 198.606 169.204 202.476 166.017 204.062L161.22 206.449C158.032 208.035 154.162 206.737 152.576 203.55L145.107 188.54Z" fill="white"/>
<path fill-rule="evenodd" clip-rule="evenodd" d="M153.042 177.99L148.245 180.378C145.323 181.832 144.133 185.379 145.588 188.301L153.057 203.31C154.511 206.232 158.059 207.422 160.981 205.968L165.777 203.581C168.699 202.127 169.889 198.579 168.435 195.657L160.966 180.648C159.512 177.726 155.964 176.536 153.042 177.99ZM148.006 179.897C144.818 181.483 143.52 185.353 145.107 188.54L152.576 203.55C154.162 206.737 158.032 208.035 161.22 206.449L166.017 204.062C169.204 202.476 170.502 198.606 168.916 195.418L161.447 180.409C159.86 177.221 155.99 175.923 152.803 177.509L148.006 179.897Z" fill="black"/>
<path d="M151.083 187.871C151.332 188.372 151.128 188.981 150.627 189.23C150.125 189.48 149.517 189.276 149.267 188.774C149.018 188.273 149.222 187.664 149.723 187.415C150.225 187.165 150.833 187.37 151.083 187.871Z" fill="black"/>
<path d="M152.509 188.457C152.758 188.958 152.554 189.567 152.053 189.816C151.551 190.066 150.942 189.862 150.693 189.36C150.443 188.859 150.648 188.25 151.149 188.001C151.65 187.751 152.259 187.955 152.509 188.457Z" fill="black"/>
<path d="M150.692 189.36C150.942 189.862 150.737 190.47 150.236 190.72C149.735 190.969 149.126 190.765 148.877 190.264C148.627 189.762 148.831 189.154 149.333 188.904C149.834 188.655 150.443 188.859 150.692 189.36Z" fill="black"/>
<path d="M150.303 189.554L151.081 189.167L151.855 190.723L151.077 191.11L150.303 189.554Z" fill="black"/>
<path d="M154.569 194.873C154.819 195.375 154.614 195.983 154.113 196.233C153.612 196.482 153.003 196.278 152.754 195.777C152.504 195.276 152.708 194.667 153.21 194.417C153.711 194.168 154.32 194.372 154.569 194.873Z" fill="black"/>
<path d="M155.994 195.459C156.243 195.961 156.039 196.569 155.538 196.819C155.037 197.068 154.428 196.864 154.178 196.363C153.929 195.862 154.133 195.253 154.634 195.003C155.136 194.754 155.744 194.958 155.994 195.459Z" fill="black"/>
<path d="M154.177 196.363C154.427 196.864 154.223 197.473 153.721 197.722C153.22 197.972 152.611 197.768 152.362 197.266C152.112 196.765 152.317 196.156 152.818 195.907C153.319 195.657 153.928 195.862 154.177 196.363Z" fill="black"/>
<path d="M153.788 196.556L154.566 196.169L155.341 197.725L154.563 198.113L153.788 196.556Z" fill="black"/>
<path d="M162.155 191.098C162.405 191.599 162.2 192.208 161.699 192.458C161.198 192.707 160.589 192.503 160.339 192.002C160.09 191.5 160.294 190.891 160.795 190.642C161.297 190.392 161.906 190.597 162.155 191.098Z" fill="black"/>
<path d="M163.579 191.684C163.828 192.185 163.624 192.794 163.123 193.043C162.621 193.293 162.013 193.089 161.763 192.587C161.514 192.086 161.718 191.477 162.219 191.228C162.721 190.978 163.329 191.182 163.579 191.684Z" fill="black"/>
<path d="M161.764 192.587C162.014 193.089 161.81 193.697 161.308 193.947C160.807 194.196 160.198 193.992 159.949 193.491C159.699 192.989 159.903 192.381 160.405 192.131C160.906 191.882 161.515 192.086 161.764 192.587Z" fill="black"/>
<path d="M161.374 192.781L162.152 192.394L162.927 193.95L162.148 194.337L161.374 192.781Z" fill="black"/>
<path d="M158.379 184.24C158.628 184.741 158.424 185.35 157.923 185.6C157.421 185.849 156.813 185.645 156.563 185.144C156.314 184.642 156.518 184.034 157.019 183.784C157.52 183.535 158.129 183.739 158.379 184.24Z" fill="black"/>
<path d="M159.804 184.826C160.054 185.327 159.85 185.936 159.348 186.185C158.847 186.435 158.238 186.231 157.989 185.729C157.739 185.228 157.944 184.619 158.445 184.37C158.946 184.12 159.555 184.324 159.804 184.826Z" fill="black"/>
<path d="M157.988 185.73C158.238 186.231 158.033 186.84 157.532 187.089C157.031 187.339 156.422 187.134 156.172 186.633C155.923 186.132 156.127 185.523 156.628 185.274C157.13 185.024 157.739 185.228 157.988 185.73Z" fill="black"/>
<path d="M157.598 185.923L158.376 185.536L159.15 187.092L158.372 187.48L157.598 185.923Z" fill="black"/>
<path d="M150.178 186.602L149.951 186.147L149.411 186.416L148.182 183.945L147.637 184.216L147.004 187.654L147.215 188.077L149.13 187.124L149.622 188.113L150.13 187.86L149.638 186.871L150.178 186.602ZM148.904 186.669L147.618 187.309L148.032 184.851C148.085 184.997 148.135 185.124 148.193 185.24L148.904 186.669Z" fill="black"/>
<path d="M163.115 197.355L163.342 197.81L163.881 197.541L165.111 200.012L165.656 199.741L166.289 196.303L166.078 195.88L164.163 196.833L163.671 195.844L163.163 196.097L163.655 197.086L163.115 197.355ZM164.389 197.288L165.675 196.648L165.261 199.106C165.208 198.96 165.158 198.833 165.1 198.717L164.389 197.288Z" fill="black"/>
<rect x="80" y="80" width="223.548" height="220" rx="110" fill="#101010" fill-opacity="0.51"/>
<path d="M152.964 164.264L154.468 167.56C160.004 166.952 163.588 164.712 165.092 161.672C166.66 164.744 170.052 166.952 175.716 167.56L177.252 164.264C171.46 163.656 168.612 161.256 168.1 158.888H176.036V155.528H154.212V158.888H162.116C161.604 161.192 158.66 163.656 152.964 164.264ZM178.468 172.296V168.968H151.748V172.296H163.364V177.288H167.588V172.296H178.468ZM175.492 179.88H159.076V174.76H154.852V183.24H175.492V179.88ZM203.073 183.816V154.248H198.849V183.816H203.073ZM184.289 163.752V156.616H180.097V176.936H194.625V156.616H190.433V163.752H184.289ZM190.433 173.576H184.289V167.048H190.433V173.576ZM206.687 163.24L208.095 166.504C213.759 166.024 217.279 163.976 218.847 161.16C220.415 163.944 224.031 166.024 229.567 166.504L231.039 163.24C225.535 162.728 222.687 160.872 221.919 158.856H229.759V155.496H207.967V158.856H215.775C215.007 160.872 212.159 162.728 206.687 163.24ZM220.959 173.192V171.016H232.159V167.656H205.535V171.016H216.735V173.16C211.583 173.576 208.575 175.368 208.575 178.44C208.575 181.864 212.415 183.784 218.783 183.784C225.151 183.784 229.023 181.864 229.023 178.44C229.023 175.368 226.111 173.608 220.959 173.192ZM224.735 178.44C224.735 179.944 222.783 180.552 218.783 180.552C214.783 180.552 212.831 179.944 212.831 178.44C212.831 176.936 214.783 176.296 218.783 176.296C222.783 176.296 224.735 176.936 224.735 178.44ZM166.984 226.184L169.928 224.936C167.24 220.168 166.024 215.144 166.024 209.608C166.024 204.136 167.24 199.08 169.928 194.312L166.984 193.064C163.944 198.024 162.216 203.208 162.216 209.608C162.216 216.04 163.944 221.224 166.984 226.184ZM178.63 221.608C183.654 221.608 187.142 218.92 187.142 214.472C187.142 211.752 185.926 209.64 183.11 208.52C185.19 207.464 186.374 205.544 186.374 203.24C186.374 199.304 183.142 196.648 178.63 196.648C174.182 196.648 170.982 199.304 170.982 203.24C170.982 205.544 172.134 207.4 174.182 208.52C171.366 209.64 170.15 211.752 170.15 214.472C170.15 218.92 173.638 221.608 178.63 221.608ZM178.63 206.952C176.166 206.952 175.206 204.968 175.206 203.304C175.206 201.48 176.326 200.04 178.63 200.04C180.934 200.04 182.118 201.48 182.118 203.304C182.118 204.968 181.126 206.952 178.63 206.952ZM178.63 218.088C176.07 218.088 174.598 216.616 174.598 214.408C174.598 211.848 176.166 210.408 178.63 210.408C181.094 210.408 182.758 211.848 182.758 214.408C182.758 216.616 181.19 218.088 178.63 218.088ZM207.485 194.28V207.912H202.269V210.472H207.485V211.336H211.709V194.28H207.485ZM196.285 203.496C200.669 203.496 203.645 201.8 203.645 199.144C203.645 196.424 200.669 194.728 196.285 194.728C191.837 194.728 188.925 196.424 188.925 199.144C188.925 201.8 191.837 203.496 196.285 203.496ZM196.285 197.48C198.461 197.48 199.709 198.024 199.709 199.144C199.709 200.264 198.461 200.776 196.285 200.776C194.109 200.776 192.829 200.264 192.829 199.144C192.829 198.024 194.109 197.48 196.285 197.48ZM194.045 207.528V211.368H198.269V207.336C200.861 207.208 203.453 206.984 206.013 206.632L205.757 204.008C199.581 204.68 192.573 204.68 186.941 204.68L187.357 207.56C189.437 207.56 191.709 207.56 194.045 207.528ZM212.381 223.528V220.648H195.325V219.144H211.709V212.232H191.133V215.08H207.549V216.488H191.165V223.528H212.381ZM214.074 224.936L216.986 226.184C220.026 221.224 221.786 216.04 221.786 209.608C221.786 203.208 220.058 198.024 216.986 193.064L214.074 194.312C216.762 199.08 217.978 204.136 217.978 209.608C217.978 215.144 216.762 220.168 214.074 224.936Z" fill="white"/>
</g>
<defs>
<filter id="filter0_d_166_6001" x="0" y="0" width="383.549" height="380" filterUnits="userSpaceOnUse" color-interpolation-filters="sRGB">
<feFlood flood-opacity="0" result="BackgroundImageFix"/>
<feColorMatrix in="SourceAlpha" type="matrix" values="0 0 0 0 0 0 0 0 0 0 0 0 0 0 0 0 0 0 127 0" result="hardAlpha"/>
<feOffset/>
<feGaussianBlur stdDeviation="40"/>
<feComposite in2="hardAlpha" operator="out"/>
<feColorMatrix type="matrix" values="0 0 0 0 1 0 0 0 0 0.624988 0 0 0 0 0.624988 0 0 0 0.12 0"/>
<feBlend mode="normal" in2="BackgroundImageFix" result="effect1_dropShadow_166_6001"/>
<feBlend mode="normal" in="SourceGraphic" in2="effect1_dropShadow_166_6001" result="shape"/>
</filter>
<clipPath id="clip0_166_6001">
<rect width="89.5534" height="93.6109" fill="white" transform="translate(165.055 145) rotate(4.95779)"/>
</clipPath>
<clipPath id="clip1_166_6001">
<rect width="89.5534" height="93.6109" fill="white" transform="translate(165.055 145) rotate(4.95779)"/>
</clipPath>
</defs>
</svg>
