<svg width="42" height="42" viewBox="0 0 42 42" fill="none" xmlns="http://www.w3.org/2000/svg">
<circle cx="21" cy="21" r="21" fill="white" fill-opacity="0.21"/>
<path d="M26.669 27.2678C26.0201 27.2758 25.3755 27.1615 24.769 26.9308C24.2256 26.7194 23.7346 26.3926 23.33 25.9728C22.9314 25.5438 22.6236 25.0387 22.425 24.4878C22.2069 23.8783 22.0989 23.235 22.106 22.5878C22.1014 21.9517 22.2125 21.3201 22.434 20.7238C22.6405 20.1677 22.9583 19.6597 23.368 19.2308C23.7788 18.8072 24.2696 18.4693 24.812 18.2368C25.3995 17.9882 26.0322 17.8646 26.67 17.8738C27.3555 17.8591 28.0343 18.0101 28.649 18.3138C29.1977 18.5952 29.6735 19.0001 30.039 19.4968C30.4077 20.004 30.6737 20.5785 30.822 21.1878C30.9838 21.8355 31.0416 22.5049 30.993 23.1708H24.562C24.5364 23.8032 24.7532 24.4216 25.168 24.8998C25.6038 25.282 26.1736 25.4755 26.752 25.4378C27.2063 25.4484 27.6527 25.3181 28.03 25.0648C28.3295 24.8819 28.5594 24.6042 28.683 24.2758H30.838C30.5938 25.2045 30.0319 26.0183 29.25 26.5758C28.4761 27.0544 27.5786 27.2951 26.669 27.2678ZM26.6 19.7238C26.264 19.7111 25.9299 19.7797 25.626 19.9238C25.3884 20.0436 25.1775 20.2103 25.006 20.4138C24.8551 20.5986 24.7435 20.8123 24.678 21.0418C24.6203 21.2329 24.583 21.4297 24.567 21.6288H28.549C28.5203 21.1102 28.3226 20.6153 27.986 20.2198C27.6135 19.8681 27.111 19.6883 26.6 19.7238ZM16.97 27.0358H11V14.7308H16.8C17.3373 14.7261 17.8736 14.778 18.4 14.8858C18.8459 14.9728 19.2707 15.1453 19.651 15.3938C19.9945 15.6322 20.2702 15.9558 20.451 16.3328C20.6507 16.7869 20.7463 17.2799 20.731 17.7758C20.7527 18.3244 20.6073 18.8666 20.314 19.3308C19.9931 19.7738 19.5594 20.1229 19.058 20.3418C19.7393 20.512 20.3382 20.9185 20.748 21.4888C21.1287 22.0756 21.3213 22.7646 21.3 23.4638C21.3145 24.0229 21.1916 24.5771 20.942 25.0778C20.7117 25.5218 20.3776 25.9036 19.968 26.1908C19.5434 26.4862 19.0692 26.703 18.568 26.8308C18.0448 26.9682 17.506 27.0374 16.965 27.0368L16.97 27.0358ZM13.71 21.5528V24.9428H16.6C16.8554 24.9455 17.1103 24.9197 17.36 24.8658C17.5886 24.8216 17.8061 24.7326 18 24.6038C18.1867 24.481 18.3383 24.3118 18.44 24.1128C18.5579 23.8631 18.6135 23.5886 18.602 23.3128C18.6505 22.8009 18.4521 22.2965 18.068 21.9548C17.6535 21.6694 17.1565 21.5288 16.654 21.5548L13.71 21.5528ZM13.71 16.8278V19.7028H16.452C16.8762 19.7195 17.2943 19.5984 17.644 19.3578C17.9736 19.084 18.1472 18.6654 18.108 18.2388C18.1164 17.9938 18.0642 17.7506 17.956 17.5308C17.8582 17.353 17.7141 17.2051 17.539 17.1028C17.3546 16.9934 17.1509 16.9204 16.939 16.8878C16.7082 16.8445 16.4738 16.8241 16.239 16.8268L13.71 16.8278ZM29.051 16.7718H24.061V15.5568H29.051V16.7708V16.7718Z" fill="white"/>
</svg>
