<svg width="370" height="34" viewBox="0 0 370 34" fill="none" xmlns="http://www.w3.org/2000/svg">
<path d="M22.4407 16.456C25.0587 16.456 26.8367 15.406 26.8367 13.712C26.8367 12.032 25.0587 10.982 22.4407 10.982C19.8227 10.982 18.0587 12.032 18.0587 13.712C18.0587 15.406 19.8227 16.456 22.4407 16.456ZM22.4407 11.906C24.3587 11.906 25.6607 12.606 25.6607 13.712C25.6607 14.832 24.3587 15.532 22.4407 15.532C20.5367 15.532 19.2347 14.832 19.2347 13.712C19.2347 12.606 20.5367 11.906 22.4407 11.906ZM25.1847 18.57H28.1527V17.632H16.7847V18.57H19.7107V23.036H20.8727V18.57H24.0227V23.036H25.1847V18.57ZM38.8896 23.05V10.478H37.7416V15.042H35.0256V15.98H37.7416V23.05H38.8896ZM32.8836 14.16V12.704H35.7396V11.766H28.8936V12.704H31.7356V14.16C31.7356 16.386 30.2376 18.752 28.4456 19.648L29.1176 20.558C30.5456 19.802 31.7496 18.206 32.3096 16.344C32.8696 18.08 34.1016 19.578 35.4876 20.292L36.1736 19.396C34.3536 18.542 32.8836 16.218 32.8836 14.16ZM50.6065 23.05V10.464H49.4585V23.05H50.6065ZM42.1785 19.06V16.134H46.8125V11.64H40.9885V12.578H45.6505V15.196H41.0305V20.012H42.0665C44.2365 20.012 46.1125 19.928 48.3945 19.55L48.2825 18.612C46.0985 18.948 44.2365 19.06 42.1785 19.06ZM62.4075 23.05V10.478H61.2595V14.734H58.3475V15.672H61.2595V23.05H62.4075ZM56.4575 13.81V11.556H55.3095V13.81C55.3095 16.12 53.8815 18.57 52.0615 19.466L52.7615 20.376C54.1755 19.634 55.3235 18.038 55.8835 16.176C56.4575 17.926 57.6335 19.438 59.0335 20.152L59.7055 19.242C57.8855 18.388 56.4575 16.078 56.4575 13.81ZM74.1104 23.022V10.464H72.9484V23.022H74.1104ZM68.4404 14.538V13.572H71.3104V12.648H68.4544V10.702H67.2924V12.648H64.3944V13.572H67.3064V14.538C67.3064 16.75 65.9204 18.836 64.0584 19.732L64.7024 20.6C66.1584 19.886 67.3344 18.472 67.8944 16.722C68.4684 18.388 69.6444 19.732 71.1004 20.39L71.7444 19.494C69.8684 18.668 68.4404 16.652 68.4404 14.538Z" fill="#EB5757"/>
<rect x="0.5" y="0.5" width="91" height="33" rx="16.5" stroke="#EB5757"/>
<path d="M131.301 23.036V10.478H130.153V23.036H131.301ZM127.619 11.836H121.739V12.76H126.457C126.219 15.742 124.539 18.15 121.165 19.76L121.781 20.698C125.967 18.64 127.619 15.462 127.619 11.836ZM134.296 14.902H142.822V13.978H135.444V10.744H134.296V14.902ZM144.124 17.296V16.358H132.77V17.296H144.124ZM138.426 18.416C135.752 18.416 134.128 19.256 134.128 20.712C134.128 22.168 135.752 22.994 138.426 22.994C141.1 22.994 142.724 22.168 142.724 20.712C142.724 19.256 141.1 18.416 138.426 18.416ZM138.426 22.098C136.452 22.098 135.29 21.608 135.29 20.712C135.29 19.816 136.452 19.312 138.426 19.312C140.4 19.312 141.562 19.816 141.562 20.712C141.562 21.608 140.4 22.098 138.426 22.098ZM155.911 21.454V20.502H150.773V17.282H154.595V16.358H147.105V12.424H154.469V11.486H145.957V17.282H149.611V20.502H144.501V21.454H155.911ZM156.876 14.622L157.212 15.49C159.34 15.336 161.174 14.678 161.958 13.516C162.742 14.678 164.576 15.336 166.676 15.49L167.026 14.622C164.688 14.468 162.784 13.684 162.602 12.452H166.466V11.584H162.532V10.394H161.384V11.584H157.436V12.452H161.314C161.132 13.684 159.186 14.468 156.876 14.622ZM162.532 18.094V16.932H167.614V16.05H156.288V16.932H161.37V18.094H157.632V18.948H165.038V20.012H157.674V22.896H166.55V22.028H158.794V20.838H166.172V18.094H162.532ZM179.186 17.688H180.334V10.478H179.186V17.688ZM170.702 16.428H176.568V11.29H170.702V16.428ZM171.822 12.2H175.448V15.504H171.822V12.2ZM176.946 19.424H180.628V18.542H176.946V17.324H175.784V18.542H172.102V19.424H175.77C175.77 20.684 173.74 21.846 171.612 22.112L171.99 22.994C173.88 22.728 175.63 21.888 176.372 20.698C177.114 21.86 178.78 22.728 180.684 22.994L181.076 22.112C178.92 21.846 176.946 20.6 176.946 19.424ZM193.473 16.624H195.461V15.658H193.473V10.464H192.325V23.036H193.473V16.624ZM188.139 19.284V17.156C189.749 16.932 190.883 15.812 190.883 14.244C190.883 12.494 189.469 11.29 187.565 11.29C185.605 11.29 184.233 12.494 184.233 14.244C184.233 15.812 185.367 16.974 186.991 17.156V19.326C185.815 19.368 184.681 19.368 183.673 19.368L183.827 20.334C186.039 20.334 188.965 20.292 191.625 19.844L191.527 19.004C190.449 19.158 189.315 19.228 188.139 19.284ZM185.353 14.244C185.353 13.068 186.263 12.256 187.565 12.256C188.853 12.256 189.763 13.068 189.763 14.244C189.763 15.434 188.853 16.218 187.565 16.218C186.263 16.218 185.353 15.434 185.353 14.244ZM205.848 23.064V10.478H204.7V23.064H205.848ZM199.226 11.444C197.364 11.444 196.034 13.152 196.034 15.826C196.034 18.5 197.364 20.208 199.226 20.208C201.088 20.208 202.418 18.5 202.418 15.826C202.418 13.152 201.088 11.444 199.226 11.444ZM199.226 12.48C200.444 12.48 201.312 13.796 201.312 15.826C201.312 17.87 200.444 19.186 199.226 19.186C197.994 19.186 197.126 17.87 197.126 15.826C197.126 13.796 197.994 12.48 199.226 12.48ZM217.677 23.064V10.478H216.529V15.266H213.799C213.617 12.914 212.385 11.444 210.691 11.444C208.857 11.444 207.555 13.152 207.555 15.826C207.555 18.5 208.857 20.208 210.691 20.208C212.441 20.208 213.687 18.668 213.799 16.204H216.529V23.064H217.677ZM210.691 19.186C209.487 19.186 208.647 17.87 208.647 15.826C208.647 13.796 209.487 12.48 210.691 12.48C211.881 12.48 212.721 13.796 212.721 15.826C212.721 17.87 211.881 19.186 210.691 19.186ZM220.098 12.662H222.044V17.03H220.126V17.968H229.38V17.03H227.462V12.662H229.408V11.738H220.098V12.662ZM223.192 12.662H226.314V17.03H223.192V12.662ZM230.472 21.426V20.474H219.09V21.426H230.472ZM241.517 23.036V10.478H240.411V23.036H241.517ZM238.955 10.786H237.877V14.986H236.323V15.938H237.877V22.378H238.955V10.786ZM232.375 18.99V16.218H235.735V11.864H231.227V12.802H234.629V15.308H231.269V19.956H232.095C233.705 19.956 235.119 19.886 236.869 19.592L236.771 18.654C235.147 18.934 233.817 18.99 232.375 18.99ZM252.912 17.674V10.492H251.764V17.674H252.912ZM246.164 11.15C244.274 11.15 242.902 12.34 242.902 14.076C242.902 15.812 244.274 17.002 246.164 17.002C248.068 17.002 249.454 15.812 249.454 14.076C249.454 12.34 248.068 11.15 246.164 11.15ZM246.164 12.102C247.438 12.102 248.334 12.914 248.334 14.076C248.334 15.238 247.438 16.05 246.164 16.05C244.918 16.05 244.022 15.238 244.022 14.076C244.022 12.914 244.918 12.102 246.164 12.102ZM252.912 22.868V18.346H244.792V22.868H252.912ZM245.912 21.944V19.256H251.792V21.944H245.912Z" fill="#EB5757"/>
<rect x="104.5" y="0.5" width="166" height="33" rx="16.5" stroke="#EB5757"/>
<path d="M304.399 22.182C306.499 22.182 308.095 21.062 308.095 17.758V11.738H306.849V17.8C306.849 20.264 305.785 21.048 304.399 21.048C303.055 21.048 302.019 20.264 302.019 17.8V11.738H300.717V17.758C300.717 21.062 302.313 22.182 304.399 22.182ZM308.762 11.738L311.562 16.694L308.566 22H309.924L311.408 19.228C311.674 18.738 311.94 18.178 312.234 17.576H312.29C312.626 18.192 312.906 18.724 313.172 19.228L314.684 22H316.112L313.116 16.764L315.916 11.738H314.558L313.186 14.356C312.92 14.846 312.738 15.252 312.458 15.854H312.402C312.066 15.252 311.856 14.846 311.59 14.356L310.19 11.738H308.762ZM328.641 23.036V10.478H327.535V15.532H325.827V10.814H324.749V22.406H325.827V16.47H327.535V23.036H328.641ZM323.363 12.102H318.463V13.04H322.229C322.047 15.658 320.885 17.884 317.987 19.522L318.659 20.348C322.243 18.332 323.363 15.336 323.363 12.102ZM336.186 14.384H338.93V19.872H340.092V10.492H338.93V13.432H336.186V14.384ZM336.48 17.786L337.082 16.904C335.29 16.232 334.044 14.58 334.044 12.83V11.234H332.896V12.788C332.896 14.692 331.636 16.498 329.76 17.17L330.362 18.08C331.832 17.478 332.938 16.316 333.484 14.804C334.03 16.162 335.08 17.24 336.48 17.786ZM340.386 22.756V21.818H333.162V18.836H332.014V22.756H340.386ZM353.111 15.252V14.3H351.249V10.478H350.101V19.718H351.249V15.252H353.111ZM348.295 14.454C348.295 12.62 346.895 11.36 345.019 11.36C343.143 11.36 341.743 12.62 341.743 14.454C341.743 16.288 343.143 17.548 345.019 17.548C346.895 17.548 348.295 16.288 348.295 14.454ZM342.863 14.454C342.863 13.222 343.787 12.354 345.019 12.354C346.251 12.354 347.175 13.222 347.175 14.454C347.175 15.686 346.251 16.554 345.019 16.554C343.787 16.554 342.863 15.686 342.863 14.454ZM351.809 21.818H344.585V18.78H343.437V22.756H351.809V21.818Z" fill="#EB5757"/>
<rect x="283.5" y="0.5" width="86" height="33" rx="16.5" stroke="#EB5757"/>
</svg>
