<svg width="310" height="620" viewBox="0 0 310 620" fill="none" xmlns="http://www.w3.org/2000/svg">
<path fill-rule="evenodd" clip-rule="evenodd" d="M305.851 142.518H306.567C307.359 142.518 308 143.156 308 143.944V212.42C308 213.208 307.359 213.846 306.567 213.846H305.851V142.518Z" fill="#121515"/>
<path fill-rule="evenodd" clip-rule="evenodd" d="M2 185.315C2 184.527 2.64169 183.888 3.43326 183.888H4.14988V228.825H3.43326C2.64169 228.825 2 228.187 2 227.399V185.315Z" fill="#121515"/>
<path fill-rule="evenodd" clip-rule="evenodd" d="M2 128.965C2 128.177 2.64169 127.539 3.43326 127.539H4.14988V172.476H3.43326C2.64169 172.476 2 171.837 2 171.049V128.965Z" fill="#121515"/>
<path fill-rule="evenodd" clip-rule="evenodd" d="M2 85.4546C2 84.6668 2.64169 84.0281 3.43326 84.0281H4.14988V107.567H3.43326C2.64169 107.567 2 106.928 2 106.14V85.4546Z" fill="#121515"/>
<g filter="url(#filter0_dd_153_1991)">
<path fill-rule="evenodd" clip-rule="evenodd" d="M4.14941 46.9371C4.14941 22.119 24.3627 2 49.297 2H260.702C285.636 2 305.85 22.119 305.85 46.9371V569.063C305.85 593.881 285.636 614 260.702 614H49.297C24.3627 614 4.14941 593.881 4.14941 569.063V46.9371Z" fill="#3A4245"/>
</g>
<path fill-rule="evenodd" clip-rule="evenodd" d="M7.7334 46.937C7.7334 24.0887 26.3424 5.56641 49.2978 5.56641H260.703C283.658 5.56641 302.267 24.0887 302.267 46.937V569.063C302.267 591.911 283.658 610.434 260.703 610.434H49.2978C26.3424 610.434 7.7334 591.911 7.7334 569.063V46.937Z" fill="#121515"/>
<path fill-rule="evenodd" clip-rule="evenodd" d="M187.606 30.5315C190.772 30.5315 193.339 27.9767 193.339 24.8252C193.339 21.6737 190.772 19.1189 187.606 19.1189C184.44 19.1189 181.873 21.6737 181.873 24.8252C181.873 27.9767 184.44 30.5315 187.606 30.5315Z" fill="#262C2D"/>
<path fill-rule="evenodd" clip-rule="evenodd" d="M187.606 28.3917C189.585 28.3917 191.189 26.7949 191.189 24.8252C191.189 22.8555 189.585 21.2588 187.606 21.2588C185.627 21.2588 184.022 22.8555 184.022 24.8252C184.022 26.7949 185.627 28.3917 187.606 28.3917Z" fill="#121515"/>
<path opacity="0.4" fill-rule="evenodd" clip-rule="evenodd" d="M187.606 24.1119C188.002 24.1119 188.323 23.7925 188.323 23.3986C188.323 23.0047 188.002 22.6853 187.606 22.6853C187.21 22.6853 186.89 23.0047 186.89 23.3986C186.89 23.7925 187.21 24.1119 187.606 24.1119Z" fill="#636F73"/>
<path fill-rule="evenodd" clip-rule="evenodd" d="M136.726 24.8252C136.726 23.6434 137.684 22.6853 138.865 22.6853H171.134C172.316 22.6853 173.274 23.6434 173.274 24.8252V24.8252C173.274 26.007 172.316 26.965 171.134 26.965H138.865C137.684 26.965 136.726 26.007 136.726 24.8252V24.8252Z" fill="#262C2D"/>
<mask id="mask0_153_1991" style="mask-type:alpha" maskUnits="userSpaceOnUse" x="20" y="18" width="270" height="580">
<path fill-rule="evenodd" clip-rule="evenodd" d="M96.5944 39.8041H213.405C222.903 39.8041 230.604 32.1397 230.604 21.7936C230.701 19.9649 232.17 18.5023 234.003 18.4101L262.135 18.4055C277.175 18.4055 289.367 30.5408 289.367 45.5104V570.489C289.367 585.459 277.175 597.594 262.135 597.594H47.8637C32.824 597.594 20.6318 585.459 20.6318 570.489V45.5104C20.6318 30.5408 32.824 18.4055 47.8637 18.4055H75.9913C77.8286 18.5023 79.2981 19.9649 79.3907 21.789C79.3953 32.1397 87.0956 39.8041 96.5944 39.8041Z" fill="white"/>
</mask>
<g mask="url(#mask0_153_1991)">
<path fill-rule="evenodd" clip-rule="evenodd" d="M20.6318 18.4055H289.367V597.594H20.6318V18.4055Z" fill="#C4C4C4"/>
</g>
<path d="M94.0266 284.84V290.74H91.4266V292.42H104.907V290.74H102.287V284.84H104.947V283.18H91.3666V284.84H94.0266ZM100.247 284.84V290.74H96.0866V284.84H100.247ZM106.407 295.62H90.0066V297.32H106.407V295.62ZM123.185 295.72H116.005V292.64H121.645V290.98H110.825V288.46H121.245V282.74H108.765V284.4H119.205V286.82H108.805V292.64H113.945V295.72H106.825V297.42H123.185V295.72ZM139.984 295.72H132.824V292.32H138.164V290.68H127.744V288.32H137.604V286.7H127.744V284.52H138.004V282.84H125.644V292.32H130.744V295.72H123.624V297.42H139.984V295.72ZM157.222 290.26V288.56H154.402V281.46H152.342V299.56H154.402V290.26H157.222ZM143.222 293.64V289.76H149.262V288.1H143.222V284.74H149.602V283.04H141.162V295.32H142.622C145.822 295.32 148.282 295.2 151.042 294.78L150.842 293.1C148.302 293.52 146.102 293.64 143.222 293.64ZM172.08 281.46H170V299.58H172.08V281.46ZM162.46 282.8C159.8 282.8 157.82 285.28 157.82 289.16C157.82 293.08 159.8 295.54 162.46 295.54C165.16 295.54 167.12 293.08 167.12 289.16C167.12 285.28 165.16 282.8 162.46 282.8ZM162.46 284.66C164.06 284.66 165.14 286.34 165.14 289.16C165.14 292.06 164.06 293.7 162.46 293.7C160.86 293.7 159.8 292.06 159.8 289.16C159.8 286.34 160.86 284.66 162.46 284.66ZM188.899 292.48V281.5H186.839V292.48H188.899ZM185.439 290.72L185.299 289.2C184.519 289.3 183.719 289.4 182.899 289.46V284.62H184.499V282.94H174.799V284.62H176.439V289.72C175.699 289.74 174.979 289.74 174.319 289.74L174.559 291.44C177.579 291.44 181.779 291.36 185.439 290.72ZM178.419 289.68V284.62H180.899V289.58C180.079 289.64 179.219 289.66 178.419 289.68ZM182.919 292.84C178.999 292.84 176.799 294.02 176.799 296.18C176.799 298.3 179.099 299.54 182.919 299.54C186.699 299.54 189.019 298.3 189.019 296.18C189.019 294.04 186.699 292.84 182.919 292.84ZM182.919 297.94C180.259 297.94 178.839 297.32 178.839 296.18C178.839 295.04 180.259 294.44 182.919 294.44C185.499 294.44 186.959 295.04 186.959 296.18C186.959 297.32 185.499 297.94 182.919 297.94ZM200.61 298.26C202.63 298.26 204.29 297.52 205.27 296.54V290.16H200.25V292.06H203.17V295.52C202.63 295.98 201.75 296.24 200.85 296.24C197.81 296.24 196.19 294.1 196.19 290.6C196.19 287.16 198.03 285.02 200.75 285.02C202.19 285.02 203.07 285.6 203.79 286.34L205.05 284.86C204.15 283.92 202.75 283 200.67 283C196.75 283 193.81 285.86 193.81 290.68C193.81 295.48 196.67 298.26 200.61 298.26ZM207.033 283.28V298H209.353V283.28H207.033ZM211.605 283.28V298H213.925V291.66H219.365V289.72H213.925V285.22H220.325V283.28H211.605Z" fill="black"/>
<defs>
<filter id="filter0_dd_153_1991" x="0.149414" y="0" width="309.7" height="620" filterUnits="userSpaceOnUse" color-interpolation-filters="sRGB">
<feFlood flood-opacity="0" result="BackgroundImageFix"/>
<feColorMatrix in="SourceAlpha" type="matrix" values="0 0 0 0 0 0 0 0 0 0 0 0 0 0 0 0 0 0 127 0" result="hardAlpha"/>
<feOffset/>
<feGaussianBlur stdDeviation="1"/>
<feColorMatrix type="matrix" values="0 0 0 0 0 0 0 0 0 0.0823529 0 0 0 0 0.25098 0 0 0 0.14 0"/>
<feBlend mode="normal" in2="BackgroundImageFix" result="effect1_dropShadow_153_1991"/>
<feColorMatrix in="SourceAlpha" type="matrix" values="0 0 0 0 0 0 0 0 0 0 0 0 0 0 0 0 0 0 127 0" result="hardAlpha"/>
<feOffset dy="2"/>
<feGaussianBlur stdDeviation="2"/>
<feColorMatrix type="matrix" values="0 0 0 0 0 0 0 0 0 0.0823529 0 0 0 0 0.25098 0 0 0 0.05 0"/>
<feBlend mode="normal" in2="effect1_dropShadow_153_1991" result="effect2_dropShadow_153_1991"/>
<feBlend mode="normal" in="SourceGraphic" in2="effect2_dropShadow_153_1991" result="shape"/>
</filter>
</defs>
</svg>
