<svg width="496" height="34" viewBox="0 0 496 34" fill="none" xmlns="http://www.w3.org/2000/svg">
<path d="M27.1253 23.05V10.478H25.9773V14.734H23.0653V15.672H25.9773V23.05H27.1253ZM21.1753 13.81V11.556H20.0273V13.81C20.0273 16.12 18.5993 18.57 16.7793 19.466L17.4793 20.376C18.8933 19.634 20.0413 18.038 20.6013 16.176C21.1753 17.926 22.3513 19.438 23.7513 20.152L24.4233 19.242C22.6033 18.388 21.1753 16.078 21.1753 13.81ZM38.8142 23.05V10.478H37.6662V23.05H38.8142ZM30.3862 14.86V11.542H29.2522V20.012H35.1602V11.542H34.0262V14.86H30.3862ZM34.0262 19.074H30.3862V15.77H34.0262V19.074ZM50.6011 17.744L51.1191 16.792C48.9211 16.386 46.5411 14.454 46.5411 12.326V11.36H45.3371V12.326C45.3371 14.482 42.9571 16.344 40.7731 16.792L41.2911 17.744C43.1671 17.296 45.1551 15.952 45.9391 14.118C46.7231 15.966 48.6971 17.296 50.6011 17.744ZM51.6791 21.356V20.404H40.2971V21.356H51.6791ZM64.3709 23.036V10.478H63.2229V23.036H64.3709ZM60.6889 11.836H54.8089V12.76H59.5269C59.2889 15.742 57.6089 18.15 54.2349 19.76L54.8509 20.698C59.0369 18.64 60.6889 15.462 60.6889 11.836ZM66.3018 12.494H73.6518V11.626H70.5438V10.408H69.3958V11.626H66.3018V12.494ZM76.1018 18.892V10.506H74.9538V18.892H76.1018ZM74.0298 18.01L73.9598 17.198C72.8398 17.352 71.7198 17.436 70.5438 17.492V16.68C72.0558 16.526 72.9658 15.854 72.9658 14.832C72.9658 13.656 71.7618 12.956 69.9698 12.956C68.1918 12.956 67.0018 13.684 67.0018 14.832C67.0018 15.84 67.9258 16.526 69.3958 16.68V17.548C68.1498 17.59 66.9458 17.59 65.8818 17.59L66.0498 18.5C68.3038 18.5 71.3138 18.458 74.0298 18.01ZM68.0798 14.832C68.0798 14.174 68.8358 13.768 69.9698 13.768C71.1458 13.768 71.8738 14.174 71.8738 14.832C71.8738 15.49 71.1458 15.896 69.9698 15.896C68.8358 15.896 68.0798 15.49 68.0798 14.832ZM76.1018 19.48H67.6878V20.39H74.9538V23.036H76.1018V19.48Z" fill="#9B51E0"/>
<rect x="0.5" y="0.5" width="93" height="33" rx="16.5" stroke="#9B51E0"/>
<path d="M128.435 16.456C131.053 16.456 132.831 15.406 132.831 13.712C132.831 12.032 131.053 10.982 128.435 10.982C125.817 10.982 124.053 12.032 124.053 13.712C124.053 15.406 125.817 16.456 128.435 16.456ZM128.435 11.906C130.353 11.906 131.655 12.606 131.655 13.712C131.655 14.832 130.353 15.532 128.435 15.532C126.531 15.532 125.229 14.832 125.229 13.712C125.229 12.606 126.531 11.906 128.435 11.906ZM131.179 18.57H134.147V17.632H122.779V18.57H125.705V23.036H126.867V18.57H130.017V23.036H131.179V18.57ZM144.884 23.05V10.478H143.736V15.042H141.02V15.98H143.736V23.05H144.884ZM138.878 14.16V12.704H141.734V11.766H134.888V12.704H137.73V14.16C137.73 16.386 136.232 18.752 134.44 19.648L135.112 20.558C136.54 19.802 137.744 18.206 138.304 16.344C138.864 18.08 140.096 19.578 141.482 20.292L142.168 19.396C140.348 18.542 138.878 16.218 138.878 14.16ZM158.612 23.05V10.464H157.464V23.05H158.612ZM150.184 19.06V16.134H154.818V11.64H148.994V12.578H153.656V15.196H149.036V20.012H150.072C152.242 20.012 154.118 19.928 156.4 19.55L156.288 18.612C154.104 18.948 152.242 19.06 150.184 19.06ZM170.413 23.05V10.478H169.265V14.734H166.353V15.672H169.265V23.05H170.413ZM164.463 13.81V11.556H163.315V13.81C163.315 16.12 161.887 18.57 160.067 19.466L160.767 20.376C162.181 19.634 163.329 18.038 163.889 16.176C164.463 17.926 165.639 19.438 167.039 20.152L167.711 19.242C165.891 18.388 164.463 16.078 164.463 13.81ZM182.116 23.022V10.464H180.954V23.022H182.116ZM176.446 14.538V13.572H179.316V12.648H176.46V10.702H175.298V12.648H172.4V13.572H175.312V14.538C175.312 16.75 173.926 18.836 172.064 19.732L172.708 20.6C174.164 19.886 175.34 18.472 175.9 16.722C176.474 18.388 177.65 19.732 179.106 20.39L179.75 19.494C177.874 18.668 176.446 16.652 176.446 14.538Z" fill="#9B51E0"/>
<rect x="106.5" y="0.5" width="93" height="33" rx="16.5" stroke="#9B51E0"/>
<path d="M239.416 23.05V10.464H238.268V23.05H239.416ZM230.988 19.06V16.134H235.622V11.64H229.798V12.578H234.46V15.196H229.84V20.012H230.876C233.046 20.012 234.922 19.928 237.204 19.55L237.092 18.612C234.908 18.948 233.046 19.06 230.988 19.06ZM251.217 23.05V10.478H250.069V14.734H247.157V15.672H250.069V23.05H251.217ZM245.267 13.81V11.556H244.119V13.81C244.119 16.12 242.691 18.57 240.871 19.466L241.571 20.376C242.985 19.634 244.133 18.038 244.693 16.176C245.267 17.926 246.443 19.438 247.843 20.152L248.515 19.242C246.695 18.388 245.267 16.078 245.267 13.81ZM262.92 23.022V10.464H261.758V23.022H262.92ZM257.25 14.538V13.572H260.12V12.648H257.264V10.702H256.102V12.648H253.204V13.572H256.116V14.538C256.116 16.75 254.73 18.836 252.868 19.732L253.512 20.6C254.968 19.886 256.144 18.472 256.704 16.722C257.278 18.388 258.454 19.732 259.91 20.39L260.554 19.494C258.678 18.668 257.25 16.652 257.25 14.538ZM267.898 15.896H276.27V10.884H275.136V12.48H269.032V10.884H267.898V15.896ZM269.032 13.362H275.136V14.986H269.032V13.362ZM277.782 18.038V17.114H266.372V18.038H271.594V20.474H272.742V18.038H277.782ZM276.508 21.818H268.962V19.34H267.828V22.756H276.508V21.818ZM288.505 17.898V10.492H287.343V13.11H284.613V14.048H287.343V17.898H288.505ZM284.879 17.366L285.495 16.456C283.675 15.826 282.429 14.174 282.429 12.48V11.108H281.281V12.438C281.281 14.342 280.077 16.05 278.173 16.722L278.775 17.646C280.245 17.044 281.337 15.938 281.883 14.468C282.429 15.812 283.479 16.82 284.879 17.366ZM288.505 18.598H280.091V19.522H287.343V23.05H288.505V18.598ZM301.071 17.688H302.219V10.478H301.071V17.688ZM292.587 16.428H298.453V11.29H292.587V16.428ZM293.707 12.2H297.333V15.504H293.707V12.2ZM298.831 19.424H302.513V18.542H298.831V17.324H297.669V18.542H293.987V19.424H297.655C297.655 20.684 295.625 21.846 293.497 22.112L293.875 22.994C295.765 22.728 297.515 21.888 298.257 20.698C298.999 21.86 300.665 22.728 302.569 22.994L302.961 22.112C300.805 21.846 298.831 20.6 298.831 19.424ZM315.358 16.624H317.346V15.658H315.358V10.464H314.21V23.036H315.358V16.624ZM310.024 19.284V17.156C311.634 16.932 312.768 15.812 312.768 14.244C312.768 12.494 311.354 11.29 309.45 11.29C307.49 11.29 306.118 12.494 306.118 14.244C306.118 15.812 307.252 16.974 308.876 17.156V19.326C307.7 19.368 306.566 19.368 305.558 19.368L305.712 20.334C307.924 20.334 310.85 20.292 313.51 19.844L313.412 19.004C312.334 19.158 311.2 19.228 310.024 19.284ZM307.238 14.244C307.238 13.068 308.148 12.256 309.45 12.256C310.738 12.256 311.648 13.068 311.648 14.244C311.648 15.434 310.738 16.218 309.45 16.218C308.148 16.218 307.238 15.434 307.238 14.244ZM327.733 23.064V10.478H326.585V23.064H327.733ZM321.111 11.444C319.249 11.444 317.919 13.152 317.919 15.826C317.919 18.5 319.249 20.208 321.111 20.208C322.973 20.208 324.303 18.5 324.303 15.826C324.303 13.152 322.973 11.444 321.111 11.444ZM321.111 12.48C322.329 12.48 323.197 13.796 323.197 15.826C323.197 17.87 322.329 19.186 321.111 19.186C319.879 19.186 319.011 17.87 319.011 15.826C319.011 13.796 319.879 12.48 321.111 12.48ZM339.562 23.064V10.478H338.414V15.266H335.684C335.502 12.914 334.27 11.444 332.576 11.444C330.742 11.444 329.44 13.152 329.44 15.826C329.44 18.5 330.742 20.208 332.576 20.208C334.326 20.208 335.572 18.668 335.684 16.204H338.414V23.064H339.562ZM332.576 19.186C331.372 19.186 330.532 17.87 330.532 15.826C330.532 13.796 331.372 12.48 332.576 12.48C333.766 12.48 334.606 13.796 334.606 15.826C334.606 17.87 333.766 19.186 332.576 19.186ZM341.983 12.662H343.929V17.03H342.011V17.968H351.265V17.03H349.347V12.662H351.293V11.738H341.983V12.662ZM345.077 12.662H348.199V17.03H345.077V12.662ZM352.357 21.426V20.474H340.975V21.426H352.357ZM363.402 23.036V10.478H362.296V23.036H363.402ZM360.84 10.786H359.762V14.986H358.208V15.938H359.762V22.378H360.84V10.786ZM354.26 18.99V16.218H357.62V11.864H353.112V12.802H356.514V15.308H353.154V19.956H353.98C355.59 19.956 357.004 19.886 358.754 19.592L358.656 18.654C357.032 18.934 355.702 18.99 354.26 18.99ZM374.797 17.674V10.492H373.649V17.674H374.797ZM368.049 11.15C366.159 11.15 364.787 12.34 364.787 14.076C364.787 15.812 366.159 17.002 368.049 17.002C369.953 17.002 371.339 15.812 371.339 14.076C371.339 12.34 369.953 11.15 368.049 11.15ZM368.049 12.102C369.323 12.102 370.219 12.914 370.219 14.076C370.219 15.238 369.323 16.05 368.049 16.05C366.803 16.05 365.907 15.238 365.907 14.076C365.907 12.914 366.803 12.102 368.049 12.102ZM374.797 22.868V18.346H366.677V22.868H374.797ZM367.797 21.944V19.256H373.677V21.944H367.797Z" fill="#9B51E0"/>
<rect x="212.5" y="0.5" width="180" height="33" rx="16.5" stroke="#9B51E0"/>
<path d="M426.486 22.182C427.886 22.182 429.006 21.678 429.664 20.992V16.68H426.304V17.758H428.474V20.446C428.068 20.824 427.354 21.048 426.612 21.048C424.414 21.048 423.196 19.424 423.196 16.834C423.196 14.258 424.54 12.676 426.598 12.676C427.662 12.676 428.306 13.11 428.824 13.656L429.524 12.816C428.922 12.186 427.998 11.542 426.57 11.542C423.84 11.542 421.866 13.558 421.866 16.876C421.866 20.194 423.784 22.182 426.486 22.182ZM434.627 22.182C436.727 22.182 438.323 21.062 438.323 17.758V11.738H437.077V17.8C437.077 20.264 436.013 21.048 434.627 21.048C433.283 21.048 432.247 20.264 432.247 17.8V11.738H430.945V17.758C430.945 21.062 432.541 22.182 434.627 22.182ZM441.259 11.738H439.957V22H441.259V11.738ZM454.567 23.064V10.478H453.419V23.064H454.567ZM446.237 18.962V12.634H451.039V11.668H445.103V19.942H446.111C448.645 19.942 450.283 19.844 452.215 19.508L452.089 18.542C450.227 18.878 448.673 18.962 446.237 18.962ZM465.71 16.512H467.782V15.546H465.71V10.492H464.562V23.036H465.71V16.512ZM460.278 14.314V12.718H463.064V11.766H456.274V12.718H459.144V14.314C459.144 16.442 457.632 18.822 455.84 19.718L456.512 20.628C457.912 19.928 459.158 18.29 459.718 16.47C460.278 18.15 461.468 19.606 462.868 20.32L463.526 19.396C461.706 18.542 460.278 16.316 460.278 14.314ZM476.965 19.662H478.113V10.492H476.965V19.662ZM474.655 14.44C474.655 12.634 473.227 11.36 471.365 11.36C469.503 11.36 468.103 12.634 468.103 14.44C468.103 16.26 469.503 17.548 471.365 17.548C473.227 17.548 474.655 16.26 474.655 14.44ZM469.223 14.44C469.223 13.222 470.133 12.354 471.365 12.354C472.611 12.354 473.535 13.222 473.535 14.44C473.535 15.686 472.611 16.554 471.365 16.554C470.133 16.554 469.223 15.686 469.223 14.44ZM478.491 22.756V21.818H471.183V18.724H470.035V22.756H478.491Z" fill="#9B51E0"/>
<rect x="405.5" y="0.5" width="90" height="33" rx="16.5" stroke="#9B51E0"/>
</svg>
