<svg width="306" height="34" viewBox="0 0 306 34" fill="none" xmlns="http://www.w3.org/2000/svg">
<path d="M26.5653 16.624H28.5533V15.658H26.5653V10.464H25.4173V23.036H26.5653V16.624ZM21.2313 19.284V17.156C22.8413 16.932 23.9753 15.812 23.9753 14.244C23.9753 12.494 22.5613 11.29 20.6573 11.29C18.6973 11.29 17.3253 12.494 17.3253 14.244C17.3253 15.812 18.4593 16.974 20.0833 17.156V19.326C18.9073 19.368 17.7733 19.368 16.7653 19.368L16.9193 20.334C19.1313 20.334 22.0573 20.292 24.7173 19.844L24.6193 19.004C23.5413 19.158 22.4073 19.228 21.2313 19.284ZM18.4453 14.244C18.4453 13.068 19.3553 12.256 20.6573 12.256C21.9453 12.256 22.8553 13.068 22.8553 14.244C22.8553 15.434 21.9453 16.218 20.6573 16.218C19.3553 16.218 18.4453 15.434 18.4453 14.244ZM38.9402 23.064V10.478H37.7922V23.064H38.9402ZM32.3182 11.444C30.4562 11.444 29.1262 13.152 29.1262 15.826C29.1262 18.5 30.4562 20.208 32.3182 20.208C34.1802 20.208 35.5102 18.5 35.5102 15.826C35.5102 13.152 34.1802 11.444 32.3182 11.444ZM32.3182 12.48C33.5362 12.48 34.4042 13.796 34.4042 15.826C34.4042 17.87 33.5362 19.186 32.3182 19.186C31.0862 19.186 30.2182 17.87 30.2182 15.826C30.2182 13.796 31.0862 12.48 32.3182 12.48ZM50.7691 23.064V10.478H49.6211V15.266H46.8911C46.7091 12.914 45.4771 11.444 43.7831 11.444C41.9491 11.444 40.6471 13.152 40.6471 15.826C40.6471 18.5 41.9491 20.208 43.7831 20.208C45.5331 20.208 46.7791 18.668 46.8911 16.204H49.6211V23.064H50.7691ZM43.7831 19.186C42.5791 19.186 41.7391 17.87 41.7391 15.826C41.7391 13.796 42.5791 12.48 43.7831 12.48C44.9731 12.48 45.8131 13.796 45.8131 15.826C45.8131 17.87 44.9731 19.186 43.7831 19.186ZM53.19 12.662H55.136V17.03H53.218V17.968H62.472V17.03H60.554V12.662H62.5V11.738H53.19V12.662ZM56.284 12.662H59.406V17.03H56.284V12.662ZM63.564 21.426V20.474H52.182V21.426H63.564ZM74.6089 23.036V10.478H73.5029V23.036H74.6089ZM72.0469 10.786H70.9689V14.986H69.4149V15.938H70.9689V22.378H72.0469V10.786ZM65.4669 18.99V16.218H68.8269V11.864H64.3189V12.802H67.7209V15.308H64.3609V19.956H65.1869C66.7969 19.956 68.2109 19.886 69.9609 19.592L69.8629 18.654C68.2389 18.934 66.9089 18.99 65.4669 18.99ZM86.0038 17.674V10.492H84.8558V17.674H86.0038ZM79.2558 11.15C77.3658 11.15 75.9938 12.34 75.9938 14.076C75.9938 15.812 77.3658 17.002 79.2558 17.002C81.1598 17.002 82.5458 15.812 82.5458 14.076C82.5458 12.34 81.1598 11.15 79.2558 11.15ZM79.2558 12.102C80.5298 12.102 81.4258 12.914 81.4258 14.076C81.4258 15.238 80.5298 16.05 79.2558 16.05C78.0098 16.05 77.1138 15.238 77.1138 14.076C77.1138 12.914 78.0098 12.102 79.2558 12.102ZM86.0038 22.868V18.346H77.8838V22.868H86.0038ZM79.0038 21.944V19.256H84.8838V21.944H79.0038Z" fill="#EB5757"/>
<rect x="0.5" y="0.5" width="103" height="33" rx="16.5" stroke="#EB5757"/>
<path d="M135.257 13.684V11.388H134.123V17.926H142.789V11.388H141.669V13.684H135.257ZM141.669 16.988H135.257V14.608H141.669V16.988ZM144.161 21.37V20.418H132.779V21.37H144.161ZM151.258 19.466H152.35V15.182H154.03V19.83H155.136V10.492H154.03V14.244H152.35V10.716H151.258V19.466ZM150.656 17.59L150.544 16.666C149.074 16.96 147.856 17.03 146.218 17.03V15.14H149.802V11.57H145.084V12.494H148.696V14.272H145.112V17.968H145.938C147.73 17.968 149.088 17.884 150.656 17.59ZM155.5 22.756V21.818H148.094V18.99H146.946V22.756H155.5ZM165.453 18.206H166.601V10.478H165.453V18.206ZM164.305 16.526L164.193 15.588C162.387 15.966 160.847 16.036 158.201 16.036V12.396H162.961V11.472H157.053V16.974H158.089C160.847 16.974 162.457 16.904 164.305 16.526ZM162.429 18.22C159.839 18.22 158.215 19.102 158.215 20.628C158.215 22.154 159.839 23.036 162.429 23.036C165.019 23.036 166.643 22.154 166.643 20.628C166.643 19.102 165.019 18.22 162.429 18.22ZM162.429 22.126C160.511 22.126 159.349 21.58 159.349 20.628C159.349 19.676 160.511 19.13 162.429 19.13C164.347 19.13 165.495 19.676 165.495 20.628C165.495 21.58 164.347 22.126 162.429 22.126ZM180.371 23.036V10.478H179.223V23.036H180.371ZM176.689 11.836H170.809V12.76H175.527C175.289 15.742 173.609 18.15 170.235 19.76L170.851 20.698C175.037 18.64 176.689 15.462 176.689 11.836ZM182.302 12.494H189.652V11.626H186.544V10.408H185.396V11.626H182.302V12.494ZM192.102 18.892V10.506H190.954V18.892H192.102ZM190.03 18.01L189.96 17.198C188.84 17.352 187.72 17.436 186.544 17.492V16.68C188.056 16.526 188.966 15.854 188.966 14.832C188.966 13.656 187.762 12.956 185.97 12.956C184.192 12.956 183.002 13.684 183.002 14.832C183.002 15.84 183.926 16.526 185.396 16.68V17.548C184.15 17.59 182.946 17.59 181.882 17.59L182.05 18.5C184.304 18.5 187.314 18.458 190.03 18.01ZM184.08 14.832C184.08 14.174 184.836 13.768 185.97 13.768C187.146 13.768 187.874 14.174 187.874 14.832C187.874 15.49 187.146 15.896 185.97 15.896C184.836 15.896 184.08 15.49 184.08 14.832ZM192.102 19.48H183.688V20.39H190.954V23.036H192.102V19.48Z" fill="#EB5757"/>
<rect x="116.5" y="0.5" width="93" height="33" rx="16.5" stroke="#EB5757"/>
<path d="M243.415 22.182C245.515 22.182 247.111 21.062 247.111 17.758V11.738H245.865V17.8C245.865 20.264 244.801 21.048 243.415 21.048C242.071 21.048 241.035 20.264 241.035 17.8V11.738H239.733V17.758C239.733 21.062 241.329 22.182 243.415 22.182ZM250.047 11.738H248.745V22H250.047V11.738ZM265.366 23.064V10.478H264.218V23.064H265.366ZM257.036 18.962V12.634H261.838V11.668H255.902V19.942H256.91C259.444 19.942 261.082 19.844 263.014 19.508L262.888 18.542C261.026 18.878 259.472 18.962 257.036 18.962ZM276.509 16.512H278.581V15.546H276.509V10.492H275.361V23.036H276.509V16.512ZM271.077 14.314V12.718H273.863V11.766H267.073V12.718H269.943V14.314C269.943 16.442 268.431 18.822 266.639 19.718L267.311 20.628C268.711 19.928 269.957 18.29 270.517 16.47C271.077 18.15 272.267 19.606 273.667 20.32L274.325 19.396C272.505 18.542 271.077 16.316 271.077 14.314ZM287.764 19.662H288.912V10.492H287.764V19.662ZM285.454 14.44C285.454 12.634 284.026 11.36 282.164 11.36C280.302 11.36 278.902 12.634 278.902 14.44C278.902 16.26 280.302 17.548 282.164 17.548C284.026 17.548 285.454 16.26 285.454 14.44ZM280.022 14.44C280.022 13.222 280.932 12.354 282.164 12.354C283.41 12.354 284.334 13.222 284.334 14.44C284.334 15.686 283.41 16.554 282.164 16.554C280.932 16.554 280.022 15.686 280.022 14.44ZM289.29 22.756V21.818H281.982V18.724H280.834V22.756H289.29Z" fill="#EB5757"/>
<rect x="222.5" y="0.5" width="83" height="33" rx="16.5" stroke="#EB5757"/>
</svg>
